<svg width="222" height="61" viewBox="0 0 222 61" fill="none" xmlns="http://www.w3.org/2000/svg">
<path d="M215.264 60.24V39.792H207.104V35.28H220.544V60.24H215.264ZM217.184 31.584C215.968 31.584 214.992 31.248 214.256 30.576C213.52 29.904 213.152 28.976 213.152 27.792C213.152 26.608 213.52 25.68 214.256 25.008C214.992 24.336 215.968 24 217.184 24C218.4 24 219.36 24.336 220.064 25.008C220.8 25.68 221.168 26.608 221.168 27.792C221.168 28.976 220.8 29.904 220.064 30.576C219.36 31.248 218.4 31.584 217.184 31.584Z" fill="#0F172A"/>
<path d="M182.24 60.24V25.2H187.424V45.6479H187.616L196.352 35.2799H202.496L192.464 47.28L202.64 60.24H196.544L187.616 49.0079H187.424V60.24H182.24Z" fill="#0F172A"/>
<path d="M167.264 60.24V39.792H159.104V35.28H172.544V60.24H167.264ZM169.184 31.584C167.968 31.584 166.992 31.248 166.256 30.576C165.52 29.904 165.152 28.976 165.152 27.792C165.152 26.608 165.52 25.68 166.256 25.008C166.992 24.336 167.968 24 169.184 24C170.4 24 171.36 24.336 172.064 25.008C172.8 25.68 173.168 26.608 173.168 27.792C173.168 28.976 172.8 29.904 172.064 30.576C171.36 31.248 170.4 31.584 169.184 31.584Z" fill="#0F172A"/>
<path d="M134.528 60.24L131.744 25.2H137.12L138.272 52.224H138.464L140.864 30H145.952L148.352 52.224H148.544L149.696 25.2H155.072L152.288 60.24H145.52L143.504 40.128H143.312L141.296 60.24H134.528Z" fill="#0F172A"/>
<path d="M127.744 20.872C126.549 21.1707 125.504 21.576 124.608 22.088C123.755 22.5573 123.029 23.24 122.432 24.136C122.176 27.1227 121.877 30.088 121.536 33.032C121.195 35.976 120.597 38.6213 119.744 40.968C119.616 40.968 119.445 40.968 119.232 40.968C118.635 40.9253 118.165 40.9253 117.824 40.968C117.483 41.0107 117.077 41.1813 116.608 41.48C116.224 40.584 115.605 40.0933 114.752 40.008C113.899 39.9227 112.939 39.944 111.872 40.072C111.531 40.1147 111.168 40.1573 110.784 40.2C110.4 40.2 110.016 40.2 109.632 40.2C109.333 41.7787 109.163 43.528 109.12 45.448C109.12 47.3253 109.077 49.2027 108.992 51.08C108.907 52.7867 108.693 54.408 108.352 55.944C108.053 57.48 107.52 58.8667 106.752 60.104C105.813 59.1227 105.195 57.8213 104.896 56.2C104.597 54.6213 104.427 52.936 104.384 51.144C104.384 50.504 104.384 49.8427 104.384 49.16C104.384 48.4773 104.405 47.816 104.448 47.176C104.491 45.896 104.491 44.6587 104.448 43.464C104.448 42.2693 104.363 41.2027 104.192 40.264C104.064 40.264 103.893 40.2853 103.68 40.328C102.272 40.4987 100.971 40.6267 99.776 40.712C98.5813 40.7547 97.5147 40.6053 96.576 40.264C95.552 39.8373 94.72 39.1333 94.08 38.152C94.0373 37.9813 94.1013 37.832 94.272 37.704C94.4 37.6613 94.464 37.576 94.464 37.448C94.08 36.8933 93.8667 36.2107 93.824 35.4C93.824 34.5467 93.8453 33.6293 93.888 32.648C93.9307 31.88 93.952 31.0907 93.952 30.28C93.952 29.4267 93.8667 28.616 93.696 27.848L93.312 27.4C93.7813 26.504 93.888 25.6507 93.632 24.84C93.4187 24.0293 92.9707 23.368 92.288 22.856C91.6053 22.344 90.8587 22.1093 90.048 22.152C90.5173 21.1707 91.1147 20.4027 91.84 19.848C92.5653 19.2933 93.3973 18.8667 94.336 18.568C95.7013 18.0987 97.2373 17.8213 98.944 17.736C100.651 17.608 102.357 17.3307 104.064 16.904C104.149 14.6 104.021 12.5947 103.68 10.888C103.339 9.18134 102.955 7.47468 102.528 5.76801C102.315 5.00001 102.101 4.18934 101.888 3.33601C101.675 2.48267 101.483 1.58667 101.312 0.64801C102.379 0.690676 103.403 1.13868 104.384 1.99201C105.408 2.84534 106.368 3.59201 107.264 4.23201C107.819 4.61601 108.48 5.08534 109.248 5.64001C110.016 6.19468 110.421 7.09068 110.464 8.32801C110.464 8.54134 110.421 8.75468 110.336 8.96801C110.251 9.13868 110.144 9.33068 110.016 9.54401C109.931 9.67201 109.845 9.80001 109.76 9.92801C109.717 10.056 109.675 10.2053 109.632 10.376C109.504 10.9307 109.419 11.5067 109.376 12.104C109.376 12.7013 109.376 13.32 109.376 13.96C109.376 14.3867 109.376 14.8347 109.376 15.304C109.376 15.7307 109.355 16.1573 109.312 16.584C110.08 16.6693 110.955 16.7333 111.936 16.776C112.917 16.8187 113.835 16.7333 114.688 16.52C115.541 16.3067 116.117 15.9013 116.416 15.304C116.8 15.304 117.184 15.3467 117.568 15.432C117.952 15.5173 118.379 15.624 118.848 15.752C119.232 15.88 119.637 16.008 120.064 16.136C120.491 16.264 120.96 16.3493 121.472 16.392C121.6 16.776 121.899 17.0747 122.368 17.288C122.88 17.5013 123.392 17.7147 123.904 17.928C124.416 18.1413 124.736 18.44 124.864 18.824C125.589 18.952 126.187 19.1653 126.656 19.464C127.168 19.72 127.531 20.1893 127.744 20.872ZM95.04 17.288C94.5707 17.8853 93.9733 18.3333 93.248 18.632C92.5227 18.888 91.7333 18.9947 90.88 18.952C89.9413 20.2747 88.96 21.5973 87.936 22.92C86.912 24.2 86.0373 25.6507 85.312 27.272C85.568 27.9547 85.9733 28.3813 86.528 28.552C87.0827 28.7227 87.5947 28.9787 88.064 29.32C89.3867 30.3013 90.4533 31.56 91.264 33.096C92.1173 34.632 92.7787 36.4027 93.248 38.408C92.8213 38.792 92.3947 38.9627 91.968 38.92C91.5413 38.8773 91.0933 38.728 90.624 38.472C90.0267 38.1307 89.4293 37.6827 88.832 37.128C88.2347 36.5733 87.5947 36.1893 86.912 35.976C86.8693 35.1653 86.6773 34.44 86.336 33.8C86.0373 33.1173 85.7813 32.6267 85.568 32.328C85.3547 34.4613 85.2693 36.5093 85.312 38.472C85.3547 40.4347 85.3973 42.312 85.44 44.104C85.44 44.4027 85.44 44.7013 85.44 45C85.4827 45.2987 85.504 45.5973 85.504 45.896C85.5893 48.0293 85.6107 50.0987 85.568 52.104C85.5253 54.0667 85.2907 56.0293 84.864 57.992C84.7787 58.2053 84.6507 58.312 84.48 58.312C84.352 58.3547 84.2027 58.3547 84.032 58.312C83.8613 58.2693 83.7333 58.248 83.648 58.248C81.984 57.1387 81.0027 55.6667 80.704 53.832C80.448 51.9973 80.4267 49.9707 80.64 47.752C80.6827 47.24 80.7253 46.728 80.768 46.216C80.8533 45.6613 80.9387 45.1067 81.024 44.552C81.28 42.7173 81.472 40.84 81.6 38.92C81.728 37 81.6 35.1227 81.216 33.288C80.448 34.44 79.4667 35.6773 78.272 37C77.12 38.3227 75.7547 39.5813 74.176 40.776C73.4933 41.3307 72.704 41.9707 71.808 42.696C70.9547 43.4213 70.0587 44.0187 69.12 44.488C68.3093 44.872 67.52 45.0853 66.752 45.128C65.984 45.128 65.2587 44.7867 64.576 44.104C66.8373 42.2267 68.9493 40.3067 70.912 38.344C72.8747 36.3813 74.688 34.3547 76.352 32.264C77.2053 31.24 78.08 30.0667 78.976 28.744C79.9147 27.3787 80.4053 25.7787 80.448 23.944C81.1307 23.9867 81.664 23.752 82.048 23.24C82.432 22.6853 82.7947 22.088 83.136 21.448C83.3067 21.1067 83.456 20.808 83.584 20.552C83.7547 20.2533 83.9467 19.976 84.16 19.72C84.16 19.6347 84.1387 19.5493 84.096 19.464C83.968 19.336 83.9253 19.208 83.968 19.08C82.4747 18.952 81.0453 19.1227 79.68 19.592C78.3573 20.0613 77.056 20.5733 75.776 21.128C75.3493 21.3413 74.9227 21.5333 74.496 21.704C74.112 21.8747 73.7067 22.0453 73.28 22.216C72.0853 21.32 70.9547 20.2107 69.888 18.888C68.8213 17.5653 68.16 16.0933 67.904 14.472C70.336 15.2827 73.0453 15.6027 76.032 15.432C79.0613 15.2187 82.368 14.8133 85.952 14.216C86.08 14.1307 86.1227 14.0027 86.08 13.832C86.08 13.6187 86.1867 13.4267 86.4 13.256C87.808 13.0427 89.088 13.1493 90.24 13.576C91.392 13.96 92.4373 14.3867 93.376 14.856C93.5893 14.9413 93.7813 15.048 93.952 15.176C94.1653 15.2613 94.3787 15.3467 94.592 15.432C94.6347 15.9867 94.6987 16.3707 94.784 16.584C94.8693 16.7973 94.9547 17.032 95.04 17.288ZM116.544 21.064C116.373 20.9787 116.224 20.8933 116.096 20.808C115.968 20.68 115.904 20.4667 115.904 20.168C115.435 20.2107 114.965 20.232 114.496 20.232C114.027 20.232 113.579 20.2107 113.152 20.168C112.683 20.168 112.213 20.168 111.744 20.168C111.317 20.168 110.933 20.2107 110.592 20.296C110.165 20.3813 109.781 20.552 109.44 20.808C109.141 21.064 108.928 21.4907 108.8 22.088C108.885 22.2587 108.971 22.472 109.056 22.728C109.184 22.984 109.227 23.2187 109.184 23.432C109.141 23.6027 109.099 23.7733 109.056 23.944C109.013 24.072 108.971 24.2 108.928 24.328C108.843 24.6267 108.757 24.9253 108.672 25.224C108.629 25.48 108.672 25.8 108.8 26.184C110.037 26.4827 111.147 26.952 112.128 27.592C113.109 28.1893 114.048 28.8507 114.944 29.576C114.133 29.6613 113.173 29.7253 112.064 29.768C110.955 29.8107 110.037 29.9173 109.312 30.088C109.227 30.6853 109.163 31.3253 109.12 32.008C109.12 32.6907 109.12 33.352 109.12 33.992C109.12 34.504 109.099 34.9947 109.056 35.464C109.056 35.8907 109.035 36.2533 108.992 36.552C109.419 36.5947 109.824 36.5947 110.208 36.552C110.635 36.5093 111.04 36.4667 111.424 36.424C112.107 36.3813 112.747 36.36 113.344 36.36C113.984 36.36 114.56 36.5307 115.072 36.872C115.797 34.5253 116.224 32.0933 116.352 29.576C116.523 27.0587 116.587 24.2213 116.544 21.064ZM90.048 5.19201C90.1333 6.04534 89.92 6.81334 89.408 7.49601C88.896 8.17868 88.3413 8.86134 87.744 9.54401C87.488 9.80001 87.232 10.0773 86.976 10.376C86.7627 10.632 86.5493 10.9093 86.336 11.208C86.1227 10.6107 85.9947 9.88534 85.952 9.03201C85.952 8.17868 85.7813 7.53868 85.44 7.11201C84.1173 6.64268 83.008 6.17334 82.112 5.70401C81.2587 5.19201 80.5333 4.31734 79.936 3.08001C80.6613 2.82401 81.3867 2.65334 82.112 2.56801C82.8373 2.48268 83.52 2.39734 84.16 2.31201C84.9707 2.18401 85.8027 2.20534 86.656 2.37601C87.552 2.50401 88.32 2.80268 88.96 3.27201C89.6 3.69868 89.9627 4.33868 90.048 5.19201ZM104.32 37.064C104.533 35.9547 104.619 34.8453 104.576 33.736C104.576 32.6267 104.469 31.6027 104.256 30.664C103.061 30.92 102.08 31.048 101.312 31.048C100.587 31.0053 99.8613 30.9413 99.136 30.856C98.9653 30.8133 98.7947 30.792 98.624 30.792C98.496 30.7493 98.3467 30.728 98.176 30.728C98.1333 31.624 98.1333 32.6267 98.176 33.736C98.2613 34.8453 98.368 35.912 98.496 36.936C99.392 37.0213 100.331 37.0853 101.312 37.128C102.293 37.128 103.296 37.1067 104.32 37.064ZM104.64 26.76C104.469 25.736 104.405 24.7973 104.448 23.944C104.533 23.048 104.491 22.0667 104.32 21C103.424 20.9147 102.4 20.9573 101.248 21.128C100.139 21.256 99.136 21.4693 98.24 21.768C98.24 22.152 98.2187 22.536 98.176 22.92C98.176 23.2613 98.176 23.624 98.176 24.008C98.1333 24.52 98.112 25.0533 98.112 25.608C98.112 26.1627 98.112 26.8027 98.112 27.528C99.264 27.4 100.352 27.3147 101.376 27.272C102.4 27.1867 103.488 27.016 104.64 26.76Z" fill="#F59E0B"/>
<path d="M61.824 33.032C60.8 34.056 59.5627 34.6107 58.112 34.696C56.6613 34.7814 55.1467 34.504 53.568 33.864C51.9893 33.224 50.432 32.328 48.896 31.176C48.0427 30.536 47.552 29.96 47.424 29.448C47.296 28.8934 47.0187 28.1894 46.592 27.336C46.2933 26.696 45.888 25.9707 45.376 25.16C44.9067 24.3493 44.4587 23.7947 44.032 23.496C43.8613 23.9654 43.6907 24.6694 43.52 25.608C43.3493 26.504 43.1787 27.464 43.008 28.488C42.88 29.4694 42.752 30.3654 42.624 31.176C42.1973 31.0907 41.9413 31.24 41.856 31.624C41.7707 32.008 41.728 32.4773 41.728 33.032C41.728 33.416 41.7067 33.8214 41.664 34.248C41.6213 34.632 41.5147 34.9734 41.344 35.272C42.4107 34.5467 43.6267 34.3974 44.992 34.824C46.4 35.2507 47.3813 36.2107 47.936 37.704C47.2107 38.5574 46.2507 39.2187 45.056 39.688C43.8613 40.1147 42.6027 40.4774 41.28 40.776C40 41.0747 38.784 41.48 37.632 41.992C37.6747 41.8214 37.568 41.672 37.312 41.544C37.0987 41.416 36.8213 41.48 36.48 41.736C37.9733 42.76 39.7653 43.8054 41.856 44.872C43.9893 45.896 46.144 46.984 48.32 48.136C50.496 49.2454 52.416 50.44 54.08 51.72C54.72 52.6587 54.912 53.4267 54.656 54.024C54.4427 54.664 53.888 55.176 52.992 55.56C50.9867 56.072 48.9387 56.1574 46.848 55.816C44.7573 55.5174 43.0293 54.9627 41.664 54.152C40.9813 52.9147 40.1707 51.8053 39.232 50.824C38.2933 49.8 37.3333 48.8187 36.352 47.88C34.6453 48.52 33.088 49.352 31.68 50.376C30.3147 51.3574 28.9493 52.3387 27.584 53.32C26.2187 54.3014 24.6827 55.1547 22.976 55.88C22.8907 55.9653 22.848 56.1147 22.848 56.328C22.8907 56.584 22.8693 56.8827 22.784 57.224C21.2907 57.5227 20.096 57.3734 19.2 56.776C18.304 56.1787 17.4933 55.4534 16.768 54.6C16.2133 54.0027 15.6587 53.4054 15.104 52.808C14.5493 52.168 13.9093 51.656 13.184 51.272C13.9093 50.8027 14.7413 50.632 15.68 50.76C16.6187 50.8454 17.3013 50.9733 17.728 51.144C18.24 50.2907 18.56 49.4374 18.688 48.584C18.816 47.688 18.9013 46.8134 18.944 45.96C18.9867 45.2347 19.0293 44.5093 19.072 43.784C19.1573 43.016 19.328 42.2907 19.584 41.608C19.4133 41.48 19.2853 41.48 19.2 41.608C19.1147 41.736 19.0507 41.864 19.008 41.992C18.9653 42.12 18.9227 42.0774 18.88 41.864C18.7947 41.6507 18.7947 41.48 18.88 41.352C18.9653 41.224 19.072 41.1174 19.2 41.032C19.328 40.904 19.4347 40.7547 19.52 40.584C19.648 40.4134 19.648 40.136 19.52 39.752C19.4773 39.5814 19.392 39.5387 19.264 39.624C19.136 39.752 19.008 39.7307 18.88 39.56C19.008 37 19.072 34.4187 19.072 31.816C19.072 29.2134 18.752 26.7174 18.112 24.328C17.3013 24.8827 16.704 25.4587 16.32 26.056C15.9787 26.6534 15.616 27.1867 15.232 27.656C14.8907 28.1254 14.3147 28.488 13.504 28.744C13.632 29.128 13.4187 29.5334 12.864 29.96C12.352 30.3867 11.7973 30.792 11.2 31.176C11.072 31.2614 10.9227 31.368 10.752 31.496C10.624 31.5814 10.496 31.6667 10.368 31.752L10.752 31.816C9.472 33.1387 8.04267 34.0774 6.464 34.632C4.928 35.144 3.2 35.4427 1.28 35.528C1.23733 35.4854 1.17333 35.4427 1.088 35.4C0.874665 35.2294 0.682665 35.0373 0.511998 34.824C0.341331 34.6107 0.298665 34.248 0.383998 33.736C1.32266 33.3947 2.02666 33.032 2.496 32.648C3.008 32.2214 3.456 31.7947 3.84 31.368C4.224 30.9413 4.69333 30.5787 5.248 30.28C5.376 30.3654 5.33333 30.5147 5.12 30.728C4.90667 30.8987 4.8 31.048 4.8 31.176C5.952 30.1094 6.93333 29.192 7.744 28.424C8.59733 27.656 9.38667 26.9307 10.112 26.248C10.8373 25.5227 11.5413 24.712 12.224 23.816C12.9493 22.92 13.76 21.832 14.656 20.552C14.8693 20.5094 14.976 20.5734 14.976 20.744C15.0187 20.9147 14.9333 21 14.72 21C14.8053 21.2134 14.9333 21.2987 15.104 21.256C15.3173 21.1707 15.4453 21.0214 15.488 20.808C15.5733 20.5947 15.4453 20.424 15.104 20.296C17.2373 17.7787 19.2213 15.2613 21.056 12.744C22.8907 10.2267 24.5973 7.60268 26.176 4.87202C25.92 4.18935 25.6 3.57069 25.216 3.01602C24.8747 2.41869 24.4907 1.84268 24.064 1.28802C25.728 1.20268 27.3067 1.22402 28.8 1.35202C30.2933 1.43735 31.7227 1.97068 33.088 2.95202C35.4773 6.02402 38.0373 9.03202 40.768 11.976C43.4987 14.8774 46.528 17.5227 49.856 19.912C49.856 20.04 49.8987 20.168 49.984 20.296C50.112 20.4667 50.1547 20.6374 50.112 20.808C52.3307 22.1307 54.4 23.4747 56.32 24.84C58.24 26.1627 59.904 27.7627 61.312 29.64C61.3547 29.768 61.312 29.896 61.184 30.024C61.0987 30.152 61.056 30.2587 61.056 30.344C61.7813 31.1547 62.0373 32.0507 61.824 33.032ZM33.408 44.296C32.1707 43.2293 31.104 42.2054 30.208 41.224C29.312 40.2427 28.3093 39.176 27.2 38.024C26.5173 38.3227 25.856 38.3867 25.216 38.216C24.6187 38.0454 24.064 37.8534 23.552 37.64C23.5093 37.9387 23.4667 38.216 23.424 38.472C23.424 38.728 23.424 38.984 23.424 39.24C23.296 40.6907 23.1893 41.9707 23.104 43.08C23.0613 44.1467 23.0187 45.256 22.976 46.408C22.976 47.56 23.0187 48.968 23.104 50.632C24.4693 49.7787 25.92 48.8827 27.456 47.944C29.0347 46.9627 30.4853 46.216 31.808 45.704C31.7227 45.2774 31.808 45 32.064 44.872C32.32 44.7014 32.576 44.5734 32.832 44.488C33.1307 44.4027 33.3227 44.3387 33.408 44.296ZM37.504 21.704C36.352 21.4054 34.944 21.32 33.28 21.448C31.6587 21.5334 29.9733 21.7467 28.224 22.088C26.5173 22.3867 24.96 22.728 23.552 23.112C23.552 23.368 23.552 23.6027 23.552 23.816C23.5947 24.0294 23.616 24.2214 23.616 24.392C23.6587 24.8187 23.68 25.224 23.68 25.608C23.68 25.9494 23.6587 26.3974 23.616 26.952C24.8107 26.8667 26.0693 26.7174 27.392 26.504C28.7573 26.248 30.1013 26.0773 31.424 25.992C32.5333 25.9067 33.5787 25.928 34.56 26.056C35.584 26.1414 36.5227 26.44 37.376 26.952C37.6747 25.928 37.8453 24.9254 37.888 23.944C37.9307 22.9627 37.8027 22.216 37.504 21.704ZM37.184 29.256C36.032 29.2133 34.944 29.256 33.92 29.384C32.896 29.4694 31.8933 29.576 30.912 29.704C29.7173 29.832 28.544 29.9387 27.392 30.024C26.24 30.1094 25.0667 30.0667 23.872 29.896C23.744 30.3227 23.68 30.8347 23.68 31.432C23.68 32.0294 23.7013 32.6267 23.744 33.224C23.744 33.4374 23.744 33.6507 23.744 33.864C23.744 34.0774 23.744 34.2907 23.744 34.504C25.8773 34.2907 28.1173 34.0347 30.464 33.736C32.8533 33.3947 34.9653 33.1814 36.8 33.096C36.928 32.4987 36.9707 31.8587 36.928 31.176C36.928 30.4507 37.0133 29.8107 37.184 29.256ZM39.68 17.16C38.8267 16.136 37.9947 15.0053 37.184 13.768C36.3733 12.5307 35.5413 11.3574 34.688 10.248C33.8773 9.09602 33.0027 8.17868 32.064 7.49602C31.5947 8.22135 31.0187 8.86135 30.336 9.41602C29.696 9.97068 29.248 10.7174 28.992 11.656C30.144 11.528 31.0613 11.656 31.744 12.04C32.4693 12.424 32.9813 12.936 33.28 13.576C33.6213 14.2587 33.7067 15.0267 33.536 15.88C33.408 16.6907 33.0453 17.4587 32.448 18.184C33.6853 18.0134 34.9653 17.9067 36.288 17.864C37.6107 17.8214 38.7413 17.5867 39.68 17.16ZM29.76 18.44C29.632 18.1413 29.5467 17.8 29.504 17.416C29.504 16.9893 29.504 16.5627 29.504 16.136C29.504 15.9653 29.504 15.8374 29.504 15.752C28.992 15.368 28.3733 15.0907 27.648 14.92C26.9227 14.7067 26.3253 14.3867 25.856 13.96C25.6 14.6 25.1733 15.1974 24.576 15.752C24.0213 16.3067 23.7227 16.8614 23.68 17.416C23.6373 17.4587 23.5947 17.5014 23.552 17.544C23.3813 17.672 23.2107 17.8427 23.04 18.056C22.8693 18.2267 22.848 18.3973 22.976 18.568C23.7013 18.568 24.7467 18.5467 26.112 18.504C27.4773 18.4614 28.6933 18.44 29.76 18.44ZM40 36.936C38.5493 36.68 36.992 36.5947 35.328 36.68C33.7067 36.7227 32.256 37.0854 30.976 37.768C31.4453 37.9387 31.8293 38.1947 32.128 38.536C32.4693 38.8774 32.8533 39.1334 33.28 39.304C34.3893 38.92 35.584 38.6213 36.864 38.408C38.1867 38.152 39.232 37.6613 40 36.936Z" fill="#F59E0B"/>
</svg>
