<?xml version="1.0" encoding="UTF-8"?><svg id="a" xmlns="http://www.w3.org/2000/svg" viewBox="0 0 512 512"><path d="M374.65,204.95c-.32,1.11-.95,1.9-1.74,2.69-.95.79-1.9,1.26-2.84,1.58-5.06-.63-9.48-2.37-13.59-5.22-10.43-7.27-19.12-16.44-25.92-27.03-.32-.47-.63-.79-.95-1.11-.16.32-.32.63-.63,1.11-1.11,1.74-1.9,3.79-2.37,6.01-.32,2.21-.79,4.43-1.26,6.64-.79,3.64-3.16,5.22-6.95,4.58-.63.16-1.11.32-1.42.79-.95.79-1.9,1.42-3,1.58-1.26.32-2.37.63-3.32.95-3.16,1.74-6.16,3.48-9.01,5.53.16.32.32.63.47.95.47.16,1.11.32,1.58.63.63.32.79.79.63,1.42.79.16,1.58.32,2.21.16,6.48-3.32,12.8-6.64,19.28-9.96,1.11-.47,1.9-.95,2.69-1.58.95-.47,1.9-.79,2.84-.79,1.11-.16,1.9.32,2.53,1.11,1.42,1.26,3.16,2.37,4.9,3.16,2.53,1.26,3.79,3.16,3.79,5.85-.16,2.05-1.26,3-3.32,3-1.58-.47-3-.32-4.27.32-1.26.79-2.37,1.42-3.63,2.37-.63.32-.63.79-.32,1.11.32.32.79.63,1.26.79l7.74,2.84c3.95,1.58,8.06,3.16,12.17,4.58,7.27,2.84,12.8,7.59,16.75,14.22.63,1.42.47,2.53-.16,3.64-.79,1.11-1.74,1.9-3,2.53-2.05,1.26-4.27,1.42-6.64.47-3.48-1.42-6.95-1.58-10.59-.47-.47.16-.63,0-.47-.47-.47-.32-.95-.32-1.42-.32-.47.16-1.11.32-1.74.32l1.26-1.26c.79-.47,1.58-.95,2.37-1.42.95-1.26.79-2.37-.47-3.32-4.42-2.21-8.85-4.27-13.43-6.48-1.26-.47-2.53-.95-3.95-1.58-3-1.26-6.01-2.85-9.01-4.74-1.74-1.26-3.32-1.26-4.74,0-1.74,1.42-3.32,2.69-4.9,3.95-.63.79-1.11,1.58-1.42,2.53-1.42.95-2.69,1.9-3.95,3-1.58,1.74-3,3.48-4.42,5.37-1.11,1.26-2.37,2.69-3.48,3.95-1.26,1.26-2.69,2.21-4.27,3-1.58.95-3,1.9-4.42,2.84h-1.26c-6.95-4.9-12.64-10.91-17.07-18.18-1.11-1.58-.95-3.16.32-4.58,4.42-6.48,6.64-13.59,6.48-21.49,0-5.69-.16-11.54-.63-17.23-.32-.95-.79-1.9-1.42-2.53-.63-.79-1.26-1.58-1.9-2.53-.32,0-.63.16-.95.47l-20.39,21.34c-2.21,2.37-4.43,4.9-6.64,7.43-.63,1.26-1.58,2.53-2.37,3.64-2.84,1.58-5.69,1.74-8.85.32-.79-.32-1.11-.95-1.11-1.9,3.48-5.85,6.95-11.85,10.43-17.86.32-.47.63-.79.95-.79,0,.47,0,.95-.32,1.42-.63,1.11-1.26,2.37-1.58,3.79-.79,1.9-.16,2.53,1.9,1.9,7.11-2.05,12.64-6.01,17.07-12.17,13.43-17.39,23.87-36.67,31.14-57.69.79-2.05,1.26-4.11,1.74-6.32.32-.95,0-1.42-.95-1.42-.79,0-1.26-.32-1.74-.95,0-.63.32-1.26.79-1.58,1.74-1.74,3.32-3.32,5.22-5.06,1.74-1.58,3.79-2.69,6.16-3.32,2.37-.32,4.58-.79,6.64-1.58.63,0,1.26.16,1.74.47.47.47.95.79,1.58,1.11,2.53.63,4.43,1.9,5.69,3.95,1.11,2.05,1.74,4.43,1.9,6.8.32,3.48,1.26,6.8,2.53,9.96,4.27,10.27,8.85,20.55,13.91,30.5,3.16,6.16,6.8,12.17,11.06,17.7,1.42,1.74,3.16,3,5.22,4.11.63.32,1.42.32,1.9,0,1.58-.95,3-.79,4.43.47,6.16,3.95,10.27,9.48,12.17,16.44.32,1.9.63,3.79.79,5.53ZM327.55,172.07c-.16,0-.16-.16-.16-.47-.32-.63-.63-1.26-1.11-1.9-3.63-6.64-6.95-13.28-10.27-19.91-2.37-4.74-4.58-9.33-6.32-14.22-.63-1.42-1.26-1.42-2.05,0-1.9,2.21-3.95,4.58-6.01,6.8-.47.32-.95.95-1.26,1.74-.16.32-.16.79-.16,1.11.16-.16.47-.32.79-.47.79,0,1.42-.16,2.05-.47s1.42-.47,2.05-.47c5.69,3.16,9.8,7.74,12.49,13.59.16.79,0,1.74-.32,2.69-.95.79-2.05,1.11-3.48.95-2.21-.47-4.58-1.26-6.8-2.21-1.26-.47-2.53-.79-3.95-.79s-2.69.47-3.79,1.74c-.95.95-2.21,1.58-3.64,2.05-.47.16-.95.32-1.58.32,0-.63.16-1.11.47-1.58.63-.95,1.11-2.05,1.74-2.85.32-2.05.63-3.95.95-6.01-.32-.47-.63-.79-1.11-.95-.47,0-.95.32-1.11.63-3.48,5.06-6.64,10.27-9.96,15.49-.16.63-.47,1.26-.79,2.05.63-.32,1.42-.63,2.05-1.11l2.21-.95c0,.47.16,1.11.32,1.58,0,.47,0,.95-.16,1.74,0,.63.32.95.79.95.63,0,1.11-.16,1.58-.47,4.58-2.05,9.17-4.27,13.59-6.48,2.53-1.58,5.06-1.74,7.59-.63,2.84.63,5.53,1.74,8.22,3,2.69,1.26,4.9,3,6.64,5.37.16.16.32.16.47.16ZM291.35,215.06c-1.74-.47-3,.16-3.79,2.05-1.11,1.11-1.26,2.37-.32,3.79,1.11,1.9,1.9,3.79,2.84,5.69.16.32.47.47.79.63,1.9.47,3.95.95,6.01,1.26.32-.32.63-.32.95-.32,3.95-3.16,8.06-6.16,12.17-9.01v-.95c-1.11-.32-2.21-.47-3.32-.79-5.06-.47-10.12-1.42-15.33-2.37ZM312.06,174.29c-.32-.47-.63-.79-1.11-1.26-1.58-.79-3.16-1.58-4.74-2.05-1.11-.63-2.05-.47-2.69.63-.79.95-1.58,1.42-2.53,1.74-3.95.95-7.27,2.85-9.96,5.69-.32.63-.47,1.11-.32,1.74.16.63.32,1.26.32,1.74.63-.32,1.26-.47,1.9-.79,1.26-1.11,2.53-1.9,3.95-2.69.95-.47,1.9-.63,2.84-.32,3,2.37,5.85,4.74,8.69,7.11l.79.79c0-.32.16-.47.47-.79.63-3.79,1.42-7.74,2.37-11.54ZM303.05,192.46l-10.91-2.05c0-.32-.16-.79-.47-1.11l-.32,1.58c0,2.53.16,5.22.32,7.9.32.16.47.32.79.32,3.48-1.9,6.95-3.95,10.43-6.16,0,0,.16-.16.16-.47ZM307.63,213.01c0,.16.16.32.32.32l5.53,1.9c.79,0,1.42-.32,2.05-.79,0-.16.16-.47.16-.63-.47-.16-1.11-.32-1.58-.47l-5.22-.32h-1.26ZM313.8,219.33h-1.58c-.63.47-1.26,1.11-1.58,1.9-.79.63-1.58,1.58-2.21,2.53.95-.63,1.74-1.42,2.53-2.21l2.84-2.21ZM310.16,207.32c.63.16,1.42.32,2.05.47,1.74-.16,3.32-.16,4.9-.32.32,0,.79,0,1.26.16.47.16.79,0,.79-.63h.47c.16-.16.32-.32.47-.47-.16-.16-.47-.16-.79-.32h-1.74c.63,0,1.11-.32,1.42-.79.47-.16.63-.47.79-.79.47-.32.79-.79,1.26-1.42-.79,0-1.42,0-2.21.16l-7.43,3.64c-.47,0-.95.16-1.26.32ZM320.44,216.48c.47.16.79.47,1.26.79.47.16.95.47,1.58.63,3.48,1.26,7.11,2.37,10.59,3.64.79-.32,1.42-.79,2.05-1.26-.63-.16-1.11-.47-1.58-.79l-9.33-2.69c-.95-.32-1.9-.63-2.84-.95-.63,0-1.26.32-1.74.63Z" style="fill:#b31f2b;"/><path d="M314.27,361.79c-.47-.47-1.11-.79-2.05-.95l1.26,2.69c0,.32,0,.63.16.95-.32,0-.63,0-.95.16-.32.16-.47.47-.63.79l.32.95h-1.11c-3-1.26-5.53-3.32-7.27-6.01l-1.9-2.21c-1.74-2.53-3.16-5.06-4.27-8.06-.95-2.84-1.9-5.69-2.69-8.53-.16-.47-.32-.95-.47-1.42l-.95.95c-.95.95-1.74,2.05-2.53,3.32-.79,1.26-.95,2.53-.47,4.11.32,1.42.79,2.69,1.26,3.95.79,1.11,1.42,2.37,1.9,3.48.47,1.26.63,2.53.32,3.95-.16,1.11-.47,2.21-.79,3.32-.32.63-.79,1.11-1.58,1.26-5.06.16-9.17-1.58-12.64-5.53-1.42-2.05-2.84-4.27-4.11-6.48-.32-.47-.79-.95-1.26-1.26-.16.47-.47.79-.79,1.26l-5.53,9.8c-.16.63-.16,1.26,0,1.74,1.11,2.05,2.21,3.79,3.48,5.53.47.95.95.95,1.42,0,1.74-1.9,3.48-3.79,5.22-5.53.16-.16.32-.32.47-.47v.79c-1.42,2.37-2.85,4.74-4.43,7.11-.63,1.11-.79,2.21-.47,3.48,1.58,4.74,1.9,9.64.95,14.7-.47,2.21-.95,4.27-1.74,6.32-.32.95-1.11,1.26-2.05,1.42-1.74-.63-3.32-1.42-4.74-2.37-1.42-1.11-2.37-2.37-3-4.11-.63-.95-.95-2.21-.95-3.32,0-2.37.16-4.58.63-6.95.32-1.26.95-2.37,1.9-3.48,1.58-1.42,2.37-3.16,2.05-5.21-.32-1.9-.95-3.95-1.58-5.85-1.42,1.11-2.84,2.21-4.43,3.16-2.53,1.74-5.22,3.48-7.74,5.37-2.69,1.74-5.22,3.95-7.43,6.32-.95.63-1.9,1.42-2.84,2.05.16-.95.32-2.05.47-3,.16-1.11.47-2.05.95-2.85,5.37-9.8,9.48-19.91,12.64-30.66.79-1.11.63-1.58-.63-1.42-3.95.95-7.43-.16-10.12-3.16-.47-.63-.95-1.11-1.26-1.74-.47-.63-.47-1.26-.16-2.05.32-.63.63-1.26.95-1.9,2.53-5.22,5.53-10.43,9.17-15.17.16-.47.47-.79.95-1.26.47.47.63,1.11.79,1.74.16,1.11.16,2.21.32,3.16,0,.63.32,1.11.79,1.58.32-.16.63-.47,1.11-.63,3.16-3.79,6.48-7.43,9.96-11.06,2.37-2.37,4.9-4.27,7.59-5.85.63,0,1.26.32,1.9.63,2.53,1.11,4.9,2.53,7.11,4.11,1.9,1.11,3,2.69,3.16,4.58,0,2.05-.47,3.79-1.58,5.37-1.74,3.48-3.48,7.11-5.06,10.75-.63,1.58-1.26,3.32-2.05,5.06-.63,1.26-.16,2.21,1.11,2.84,1.9,1.11,3.79,2.21,5.85,3.16.63.16,1.26.16,1.74-.32,2.21-2.53,4.27-5.06,6.32-7.74.32-.47.32-1.11.16-1.58v-7.59c.16-3.48,1.74-6.01,4.74-7.9.47-.32.95-.63,1.42-.79v1.42c.16,2.21-.32,4.43-1.42,6.48-.16.95-.16,1.9,0,2.69.32.95.47,1.9.63,2.84.32,4.11,1.11,8.06,2.05,12.01,1.11,3.95,3,7.43,5.69,10.75,1.74,1.58,3.48,3.16,5.37,4.9l1.42,1.42ZM255.95,295.73c-.79-.95-.63-1.9.32-2.84.95-.79,1.9-1.58,2.53-2.37,3.79-3.16,7.59-6.16,11.7-9.17,1.42-1.11,2.84-1.11,4.27-.16,2.21,1.26,4.42,2.69,6.64,3.95,3.64,2.53,5.69,5.85,6.32,10.12-.16.47-.16.95,0,1.26.16.95.47,1.9.95,2.69-1.9,1.42-3.79,2.69-5.85,3.64-2.37,1.26-4.58,1.74-7.11,1.42-2.37-.47-4.74-.79-6.95-1.26-1.74,0-3.16.47-4.27,1.42-.95.79-1.42.63-1.42-.32,0-1.42-.32-2.85-1.42-3.79-.95-1.11-1.9-1.9-3.16-2.53-.79-.32-1.74-1.11-2.53-2.05ZM370.54,322.91c1.11,2.05,1.58,5.37,1.42,9.96,0,4.74-2.21,9.96-6.64,15.65-2.69,2.53-5.37,5.21-8.22,7.59-.63,1.58-1.58,2.69-2.69,3.79-.95.95-2.05,1.42-3.48,1.74-5.53.47-11.06,1.11-16.6,1.42-.47.32-.95.79-1.42,1.42-1.11,2.37-1.74,4.9-2.05,7.43-.16,2.69-.32,5.37-.32,7.9-.47,2.53-.79,5.22-.95,7.9-.63,3.79-.95,6.95-.95,9.33.16,2.37.47,4.74,1.11,7.11.16.95-.16,1.58-.95,2.05-.79.32-1.74.47-2.53.32-3.32-1.11-5.22-3.48-6.01-6.95-.16-1.11.16-2.05.95-3,1.58-1.58,2.21-3.48,1.9-5.69-.32-1.11-.63-2.21-.79-3.32-.79-7.9-1.74-15.65-2.69-23.55.16-.79,0-1.58-.16-2.37-1.26-.95-2.85-1.42-4.43-1.74-3.16-.95-4.11-2.84-3-5.85,1.42-3.16,2.84-6.16,4.27-9.33.16-.32.32-.79.32-1.26h-1.42c-3.16.95-6.16.32-8.85-1.9-1.26-1.11-1.26-2.21,0-3.48,3.95-3.32,7.74-6.64,11.54-10.12.79-.47,1.26-1.11,1.42-1.9,0-2.69-.32-5.37-.95-7.9-.32-.16-.47-.16-.79,0l-2.05,3.79c-.47.47-1.11.95-1.9,1.26-.32-.63-.47-1.42-.32-2.21.79-1.58,1.74-3,3-4.58,1.42-1.42,2.05-3.16,1.9-5.21,0-6.48.32-13.12.63-19.6.47-4.74,1.11-9.33,1.9-14.07.16-2.84.79-5.53,1.74-8.22.32-.63.79-1.26,1.42-1.58.47-.47,1.11-.79,1.58-1.26.63-.32,1.11-.63,1.58-.79.32-.16.79-.32,1.26-.16,1.42,1.42,2.37,3,3,4.9l2.53,13.59c.63,3,.79,6.01.47,9.01-.32,3.16-.63,6.16-1.11,9.17-.16.32-.16.95-.16,1.58-.16.63.16.95.95.95.63-.16,1.11-.16,1.58-.47,2.37-.63,4.74-.95,7.11-1.26,3.79-.32,7.27.63,10.27,3.16,4.58,3.63,9.17,7.59,13.75,11.38,1.42,1.74,2.69,3.48,3.79,5.37ZM309.53,360.53c.79.47,1.74.63,2.69.32-1.11-.95-2.21-1.9-3.48-2.84-.47-.32-.95-.32-1.42-.32,0,.32,0,.63.16.79.63.79,1.26,1.42,2.05,2.05ZM347.15,319.43c.63-3.95-.79-6.16-3.95-6.8-.79-.32-1.58-.63-2.37-.95-1.42-.47-2.69-.79-3.95-.79-1.11.16-1.9.47-2.69.95-.79.16-1.26.63-1.42,1.26-.32,1.26-.47,2.69-.79,4.11-.63,2.53,0,4.42,2.21,5.69,1.74,1.11,3.32,2.21,4.58,3.63,1.58,1.58,3,3.32,4.27,5.22,0,.47.16.79.47.95.32-.16.47-.47.47-.95,1.58-4.27,2.53-8.38,3.16-12.33ZM342.25,334.45c-.63,0-1.11,0-1.58.16-2.21.95-4.27,1.74-6.32,2.69l-.95,1.26c-.16,1.58-.32,3.16-.47,4.58.32.63.63,1.26.79,2.05.63-.47,1.26-1.11,1.9-1.74l6.16-7.75c.16-.32.32-.79.47-1.26Z" style="fill:#b31f2b;"/><path d="M374.65,204.95c-.32,1.11-.95,1.9-1.74,2.69-.95.79-1.9,1.26-2.84,1.58-5.06-.63-9.48-2.37-13.59-5.22-10.43-7.27-19.12-16.44-25.92-27.03-.32-.47-.63-.79-.95-1.11-.16.32-.32.63-.63,1.11-1.11,1.74-1.9,3.79-2.37,6.01-.32,2.21-.79,4.43-1.26,6.64-.79,3.64-3.16,5.22-6.95,4.58-.63.16-1.11.32-1.42.79-.95.79-1.9,1.42-3,1.58-1.26.32-2.37.63-3.32.95-3.16,1.74-6.16,3.48-9.01,5.53.16.32.32.63.47.95.47.16,1.11.32,1.58.63.63.32.79.79.63,1.42.79.16,1.58.32,2.21.16,6.48-3.32,12.8-6.64,19.28-9.96,1.11-.47,1.9-.95,2.69-1.58.95-.47,1.9-.79,2.84-.79,1.11-.16,1.9.32,2.53,1.11,1.42,1.26,3.16,2.37,4.9,3.16,2.53,1.26,3.79,3.16,3.79,5.85-.16,2.05-1.26,3-3.32,3-1.58-.47-3-.32-4.27.32-1.26.79-2.37,1.42-3.63,2.37-.63.32-.63.79-.32,1.11.32.32.79.63,1.26.79l7.74,2.84c3.95,1.58,8.06,3.16,12.17,4.58,7.27,2.84,12.8,7.59,16.75,14.22.63,1.42.47,2.53-.16,3.64-.79,1.11-1.74,1.9-3,2.53-2.05,1.26-4.27,1.42-6.64.47-3.48-1.42-6.95-1.58-10.59-.47-.47.16-.63,0-.47-.47-.47-.32-.95-.32-1.42-.32-.47.16-1.11.32-1.74.32l1.26-1.26c.79-.47,1.58-.95,2.37-1.42.95-1.26.79-2.37-.47-3.32-4.42-2.21-8.85-4.27-13.43-6.48-1.26-.47-2.53-.95-3.95-1.58-3-1.26-6.01-2.85-9.01-4.74-1.74-1.26-3.32-1.26-4.74,0-1.74,1.42-3.32,2.69-4.9,3.95-.63.79-1.11,1.58-1.42,2.53-1.42.95-2.69,1.9-3.95,3-1.58,1.74-3,3.48-4.42,5.37-1.11,1.26-2.37,2.69-3.48,3.95-1.26,1.26-2.69,2.21-4.27,3-1.58.95-3,1.9-4.42,2.84h-1.26c-6.95-4.9-12.64-10.91-17.07-18.18-1.11-1.58-.95-3.16.32-4.58,4.42-6.48,6.64-13.59,6.48-21.49,0-5.69-.16-11.54-.63-17.23-.32-.95-.79-1.9-1.42-2.53-.63-.79-1.26-1.58-1.9-2.53-.32,0-.63.16-.95.47l-20.39,21.34c-2.21,2.37-4.43,4.9-6.64,7.43-.63,1.26-1.58,2.53-2.37,3.64-2.84,1.58-5.69,1.74-8.85.32-.79-.32-1.11-.95-1.11-1.9,3.48-5.85,6.95-11.85,10.43-17.86.32-.47.63-.79.95-.79,0,.47,0,.95-.32,1.42-.63,1.11-1.26,2.37-1.58,3.79-.79,1.9-.16,2.53,1.9,1.9,7.11-2.05,12.64-6.01,17.07-12.17,13.43-17.39,23.87-36.67,31.14-57.69.79-2.05,1.26-4.11,1.74-6.32.32-.95,0-1.42-.95-1.42-.79,0-1.26-.32-1.74-.95,0-.63.32-1.26.79-1.58,1.74-1.74,3.32-3.32,5.22-5.06,1.74-1.58,3.79-2.69,6.16-3.32,2.37-.32,4.58-.79,6.64-1.58.63,0,1.26.16,1.74.47.47.47.95.79,1.58,1.11,2.53.63,4.43,1.9,5.69,3.95,1.11,2.05,1.74,4.43,1.9,6.8.32,3.48,1.26,6.8,2.53,9.96,4.27,10.27,8.85,20.55,13.91,30.5,3.16,6.16,6.8,12.17,11.06,17.7,1.42,1.74,3.16,3,5.22,4.11.63.32,1.42.32,1.9,0,1.58-.95,3-.79,4.43.47,6.16,3.95,10.27,9.48,12.17,16.44.32,1.9.63,3.79.79,5.53ZM327.55,172.07c-.16,0-.16-.16-.16-.47-.32-.63-.63-1.26-1.11-1.9-3.63-6.64-6.95-13.28-10.27-19.91-2.37-4.74-4.58-9.33-6.32-14.22-.63-1.42-1.26-1.42-2.05,0-1.9,2.21-3.95,4.58-6.01,6.8-.47.32-.95.95-1.26,1.74-.16.32-.16.79-.16,1.11.16-.16.47-.32.79-.47.79,0,1.42-.16,2.05-.47s1.42-.47,2.05-.47c5.69,3.16,9.8,7.74,12.49,13.59.16.79,0,1.74-.32,2.69-.95.79-2.05,1.11-3.48.95-2.21-.47-4.58-1.26-6.8-2.21-1.26-.47-2.53-.79-3.95-.79s-2.69.47-3.79,1.74c-.95.95-2.21,1.58-3.64,2.05-.47.16-.95.32-1.58.32,0-.63.16-1.11.47-1.58.63-.95,1.11-2.05,1.74-2.85.32-2.05.63-3.95.95-6.01-.32-.47-.63-.79-1.11-.95-.47,0-.95.32-1.11.63-3.48,5.06-6.64,10.27-9.96,15.49-.16.63-.47,1.26-.79,2.05.63-.32,1.42-.63,2.05-1.11l2.21-.95c0,.47.16,1.11.32,1.58,0,.47,0,.95-.16,1.74,0,.63.32.95.79.95.63,0,1.11-.16,1.58-.47,4.58-2.05,9.17-4.27,13.59-6.48,2.53-1.58,5.06-1.74,7.59-.63,2.84.63,5.53,1.74,8.22,3,2.69,1.26,4.9,3,6.64,5.37.16.16.32.16.47.16ZM291.35,215.06c-1.74-.47-3,.16-3.79,2.05-1.11,1.11-1.26,2.37-.32,3.79,1.11,1.9,1.9,3.79,2.84,5.69.16.32.47.47.79.63,1.9.47,3.95.95,6.01,1.26.32-.32.63-.32.95-.32,3.95-3.16,8.06-6.16,12.17-9.01v-.95c-1.11-.32-2.21-.47-3.32-.79-5.06-.47-10.12-1.42-15.33-2.37ZM312.06,174.29c-.32-.47-.63-.79-1.11-1.26-1.58-.79-3.16-1.58-4.74-2.05-1.11-.63-2.05-.47-2.69.63-.79.95-1.58,1.42-2.53,1.74-3.95.95-7.27,2.85-9.96,5.69-.32.63-.47,1.11-.32,1.74.16.63.32,1.26.32,1.74.63-.32,1.26-.47,1.9-.79,1.26-1.11,2.53-1.9,3.95-2.69.95-.47,1.9-.63,2.84-.32,3,2.37,5.85,4.74,8.69,7.11l.79.79c0-.32.16-.47.47-.79.63-3.79,1.42-7.74,2.37-11.54ZM303.05,192.46l-10.91-2.05c0-.32-.16-.79-.47-1.11l-.32,1.58c0,2.53.16,5.22.32,7.9.32.16.47.32.79.32,3.48-1.9,6.95-3.95,10.43-6.16,0,0,.16-.16.16-.47ZM307.63,213.01c0,.16.16.32.32.32l5.53,1.9c.79,0,1.42-.32,2.05-.79,0-.16.16-.47.16-.63-.47-.16-1.11-.32-1.58-.47l-5.22-.32h-1.26ZM313.8,219.33h-1.58c-.63.47-1.26,1.11-1.58,1.9-.79.63-1.58,1.58-2.21,2.53.95-.63,1.74-1.42,2.53-2.21l2.84-2.21ZM310.16,207.32c.63.16,1.42.32,2.05.47,1.74-.16,3.32-.16,4.9-.32.32,0,.79,0,1.26.16.47.16.79,0,.79-.63h.47c.16-.16.32-.32.47-.47-.16-.16-.47-.16-.79-.32h-1.74c.63,0,1.11-.32,1.42-.79.47-.16.63-.47.79-.79.47-.32.79-.79,1.26-1.42-.79,0-1.42,0-2.21.16l-7.43,3.64c-.47,0-.95.16-1.26.32ZM320.44,216.48c.47.16.79.47,1.26.79.47.16.95.47,1.58.63,3.48,1.26,7.11,2.37,10.59,3.64.79-.32,1.42-.79,2.05-1.26-.63-.16-1.11-.47-1.58-.79l-9.33-2.69c-.95-.32-1.9-.63-2.84-.95-.63,0-1.26.32-1.74.63Z" style="fill:none; stroke:#fbb03b; stroke-width:8px;"/><path d="M314.27,361.79c-.47-.47-1.11-.79-2.05-.95l1.26,2.69c0,.32,0,.63.16.95-.32,0-.63,0-.95.16-.32.16-.47.47-.63.79l.32.95h-1.11c-3-1.26-5.53-3.32-7.27-6.01l-1.9-2.21c-1.74-2.53-3.16-5.06-4.27-8.06-.95-2.84-1.9-5.69-2.69-8.53-.16-.47-.32-.95-.47-1.42l-.95.95c-.95.95-1.74,2.05-2.53,3.32-.79,1.26-.95,2.53-.47,4.11.32,1.42.79,2.69,1.26,3.95.79,1.11,1.42,2.37,1.9,3.48.47,1.26.63,2.53.32,3.95-.16,1.11-.47,2.21-.79,3.32-.32.63-.79,1.11-1.58,1.26-5.06.16-9.17-1.58-12.64-5.53-1.42-2.05-2.84-4.27-4.11-6.48-.32-.47-.79-.95-1.26-1.26-.16.47-.47.79-.79,1.26l-5.53,9.8c-.16.63-.16,1.26,0,1.74,1.11,2.05,2.21,3.79,3.48,5.53.47.95.95.95,1.42,0,1.74-1.9,3.48-3.79,5.22-5.53.16-.16.32-.32.47-.47v.79c-1.42,2.37-2.85,4.74-4.43,7.11-.63,1.11-.79,2.21-.47,3.48,1.58,4.74,1.9,9.64.95,14.7-.47,2.21-.95,4.27-1.74,6.32-.32.95-1.11,1.26-2.05,1.42-1.74-.63-3.32-1.42-4.74-2.37-1.42-1.11-2.37-2.37-3-4.11-.63-.95-.95-2.21-.95-3.32,0-2.37.16-4.58.63-6.95.32-1.26.95-2.37,1.9-3.48,1.58-1.42,2.37-3.16,2.05-5.21-.32-1.9-.95-3.95-1.58-5.85-1.42,1.11-2.84,2.21-4.43,3.16-2.53,1.74-5.22,3.48-7.74,5.37-2.69,1.74-5.22,3.95-7.43,6.32-.95.63-1.9,1.42-2.84,2.05.16-.95.32-2.05.47-3,.16-1.11.47-2.05.95-2.85,5.37-9.8,9.48-19.91,12.64-30.66.79-1.11.63-1.58-.63-1.42-3.95.95-7.43-.16-10.12-3.16-.47-.63-.95-1.11-1.26-1.74-.47-.63-.47-1.26-.16-2.05.32-.63.63-1.26.95-1.9,2.53-5.22,5.53-10.43,9.17-15.17.16-.47.47-.79.95-1.26.47.47.63,1.11.79,1.74.16,1.11.16,2.21.32,3.16,0,.63.32,1.11.79,1.58.32-.16.63-.47,1.11-.63,3.16-3.79,6.48-7.43,9.96-11.06,2.37-2.37,4.9-4.27,7.59-5.85.63,0,1.26.32,1.9.63,2.53,1.11,4.9,2.53,7.11,4.11,1.9,1.11,3,2.69,3.16,4.58,0,2.05-.47,3.79-1.58,5.37-1.74,3.48-3.48,7.11-5.06,10.75-.63,1.58-1.26,3.32-2.05,5.06-.63,1.26-.16,2.21,1.11,2.84,1.9,1.11,3.79,2.21,5.85,3.16.63.16,1.26.16,1.74-.32,2.21-2.53,4.27-5.06,6.32-7.74.32-.47.32-1.11.16-1.58v-7.59c.16-3.48,1.74-6.01,4.74-7.9.47-.32.95-.63,1.42-.79v1.42c.16,2.21-.32,4.43-1.42,6.48-.16.95-.16,1.9,0,2.69.32.95.47,1.9.63,2.84.32,4.11,1.11,8.06,2.05,12.01,1.11,3.95,3,7.43,5.69,10.75,1.74,1.58,3.48,3.16,5.37,4.9l1.42,1.42ZM255.95,295.73c-.79-.95-.63-1.9.32-2.84.95-.79,1.9-1.58,2.53-2.37,3.79-3.16,7.59-6.16,11.7-9.17,1.42-1.11,2.84-1.11,4.27-.16,2.21,1.26,4.42,2.69,6.64,3.95,3.64,2.53,5.69,5.85,6.32,10.12-.16.47-.16.95,0,1.26.16.95.47,1.9.95,2.69-1.9,1.42-3.79,2.69-5.85,3.64-2.37,1.26-4.58,1.74-7.11,1.42-2.37-.47-4.74-.79-6.95-1.26-1.74,0-3.16.47-4.27,1.42-.95.79-1.42.63-1.42-.32,0-1.42-.32-2.85-1.42-3.79-.95-1.11-1.9-1.9-3.16-2.53-.79-.32-1.74-1.11-2.53-2.05ZM370.54,322.91c1.11,2.05,1.58,5.37,1.42,9.96,0,4.74-2.21,9.96-6.64,15.65-2.69,2.53-5.37,5.21-8.22,7.59-.63,1.58-1.58,2.69-2.69,3.79-.95.95-2.05,1.42-3.48,1.74-5.53.47-11.06,1.11-16.6,1.42-.47.32-.95.79-1.42,1.42-1.11,2.37-1.74,4.9-2.05,7.43-.16,2.69-.32,5.37-.32,7.9-.47,2.53-.79,5.22-.95,7.9-.63,3.79-.95,6.95-.95,9.33.16,2.37.47,4.74,1.11,7.11.16.95-.16,1.58-.95,2.05-.79.32-1.74.47-2.53.32-3.32-1.11-5.22-3.48-6.01-6.95-.16-1.11.16-2.05.95-3,1.58-1.58,2.21-3.48,1.9-5.69-.32-1.11-.63-2.21-.79-3.32-.79-7.9-1.74-15.65-2.69-23.55.16-.79,0-1.58-.16-2.37-1.26-.95-2.85-1.42-4.43-1.74-3.16-.95-4.11-2.84-3-5.85,1.42-3.16,2.84-6.16,4.27-9.33.16-.32.32-.79.32-1.26h-1.42c-3.16.95-6.16.32-8.85-1.9-1.26-1.11-1.26-2.21,0-3.48,3.95-3.32,7.74-6.64,11.54-10.12.79-.47,1.26-1.11,1.42-1.9,0-2.69-.32-5.37-.95-7.9-.32-.16-.47-.16-.79,0l-2.05,3.79c-.47.47-1.11.95-1.9,1.26-.32-.63-.47-1.42-.32-2.21.79-1.58,1.74-3,3-4.58,1.42-1.42,2.05-3.16,1.9-5.21,0-6.48.32-13.12.63-19.6.47-4.74,1.11-9.33,1.9-14.07.16-2.84.79-5.53,1.74-8.22.32-.63.79-1.26,1.42-1.58.47-.47,1.11-.79,1.58-1.26.63-.32,1.11-.63,1.58-.79.32-.16.79-.32,1.26-.16,1.42,1.42,2.37,3,3,4.9l2.53,13.59c.63,3,.79,6.01.47,9.01-.32,3.16-.63,6.16-1.11,9.17-.16.32-.16.95-.16,1.58-.16.63.16.95.95.95.63-.16,1.11-.16,1.58-.47,2.37-.63,4.74-.95,7.11-1.26,3.79-.32,7.27.63,10.27,3.16,4.58,3.63,9.17,7.59,13.75,11.38,1.42,1.74,2.69,3.48,3.79,5.37ZM309.53,360.53c.79.47,1.74.63,2.69.32-1.11-.95-2.21-1.9-3.48-2.84-.47-.32-.95-.32-1.42-.32,0,.32,0,.63.16.79.63.79,1.26,1.42,2.05,2.05ZM347.15,319.43c.63-3.95-.79-6.16-3.95-6.8-.79-.32-1.58-.63-2.37-.95-1.42-.47-2.69-.79-3.95-.79-1.11.16-1.9.47-2.69.95-.79.16-1.26.63-1.42,1.26-.32,1.26-.47,2.69-.79,4.11-.63,2.53,0,4.42,2.21,5.69,1.74,1.11,3.32,2.21,4.58,3.63,1.58,1.58,3,3.32,4.27,5.22,0,.47.16.79.47.95.32-.16.47-.47.47-.95,1.58-4.27,2.53-8.38,3.16-12.33ZM342.25,334.45c-.63,0-1.11,0-1.58.16-2.21.95-4.27,1.74-6.32,2.69l-.95,1.26c-.16,1.58-.32,3.16-.47,4.58.32.63.63,1.26.79,2.05.63-.47,1.26-1.11,1.9-1.74l6.16-7.75c.16-.32.32-.79.47-1.26Z" style="fill:none; stroke:#fbb03b; stroke-width:8px;"/><path d="M374.65,204.95c-.32,1.11-.95,1.9-1.74,2.69-.95.79-1.9,1.26-2.84,1.58-5.06-.63-9.48-2.37-13.59-5.22-10.43-7.27-19.12-16.44-25.92-27.03-.32-.47-.63-.79-.95-1.11-.16.32-.32.63-.63,1.11-1.11,1.74-1.9,3.79-2.37,6.01-.32,2.21-.79,4.43-1.26,6.64-.79,3.64-3.16,5.22-6.95,4.58-.63.16-1.11.32-1.42.79-.95.79-1.9,1.42-3,1.58-1.26.32-2.37.63-3.32.95-3.16,1.74-6.16,3.48-9.01,5.53.16.32.32.63.47.95.47.16,1.11.32,1.58.63.63.32.79.79.63,1.42.79.16,1.58.32,2.21.16,6.48-3.32,12.8-6.64,19.28-9.96,1.11-.47,1.9-.95,2.69-1.58.95-.47,1.9-.79,2.84-.79,1.11-.16,1.9.32,2.53,1.11,1.42,1.26,3.16,2.37,4.9,3.16,2.53,1.26,3.79,3.16,3.79,5.85-.16,2.05-1.26,3-3.32,3-1.58-.47-3-.32-4.27.32-1.26.79-2.37,1.42-3.63,2.37-.63.32-.63.79-.32,1.11.32.32.79.63,1.26.79l7.74,2.84c3.95,1.58,8.06,3.16,12.17,4.58,7.27,2.84,12.8,7.59,16.75,14.22.63,1.42.47,2.53-.16,3.64-.79,1.11-1.74,1.9-3,2.53-2.05,1.26-4.27,1.42-6.64.47-3.48-1.42-6.95-1.58-10.59-.47-.47.16-.63,0-.47-.47-.47-.32-.95-.32-1.42-.32-.47.16-1.11.32-1.74.32l1.26-1.26c.79-.47,1.58-.95,2.37-1.42.95-1.26.79-2.37-.47-3.32-4.42-2.21-8.85-4.27-13.43-6.48-1.26-.47-2.53-.95-3.95-1.58-3-1.26-6.01-2.85-9.01-4.74-1.74-1.26-3.32-1.26-4.74,0-1.74,1.42-3.32,2.69-4.9,3.95-.63.79-1.11,1.58-1.42,2.53-1.42.95-2.69,1.9-3.95,3-1.58,1.74-3,3.48-4.42,5.37-1.11,1.26-2.37,2.69-3.48,3.95-1.26,1.26-2.69,2.21-4.27,3-1.58.95-3,1.9-4.42,2.84h-1.26c-6.95-4.9-12.64-10.91-17.07-18.18-1.11-1.58-.95-3.16.32-4.58,4.42-6.48,6.64-13.59,6.48-21.49,0-5.69-.16-11.54-.63-17.23-.32-.95-.79-1.9-1.42-2.53-.63-.79-1.26-1.58-1.9-2.53-.32,0-.63.16-.95.47l-20.39,21.34c-2.21,2.37-4.43,4.9-6.64,7.43-.63,1.26-1.58,2.53-2.37,3.64-2.84,1.58-5.69,1.74-8.85.32-.79-.32-1.11-.95-1.11-1.9,3.48-5.85,6.95-11.85,10.43-17.86.32-.47.63-.79.95-.79,0,.47,0,.95-.32,1.42-.63,1.11-1.26,2.37-1.58,3.79-.79,1.9-.16,2.53,1.9,1.9,7.11-2.05,12.64-6.01,17.07-12.17,13.43-17.39,23.87-36.67,31.14-57.69.79-2.05,1.26-4.11,1.74-6.32.32-.95,0-1.42-.95-1.42-.79,0-1.26-.32-1.74-.95,0-.63.32-1.26.79-1.58,1.74-1.74,3.32-3.32,5.22-5.06,1.74-1.58,3.79-2.69,6.16-3.32,2.37-.32,4.58-.79,6.64-1.58.63,0,1.26.16,1.74.47.47.47.95.79,1.58,1.11,2.53.63,4.43,1.9,5.69,3.95,1.11,2.05,1.74,4.43,1.9,6.8.32,3.48,1.26,6.8,2.53,9.96,4.27,10.27,8.85,20.55,13.91,30.5,3.16,6.16,6.8,12.17,11.06,17.7,1.42,1.74,3.16,3,5.22,4.11.63.32,1.42.32,1.9,0,1.58-.95,3-.79,4.43.47,6.16,3.95,10.27,9.48,12.17,16.44.32,1.9.63,3.79.79,5.53ZM327.55,172.07c-.16,0-.16-.16-.16-.47-.32-.63-.63-1.26-1.11-1.9-3.63-6.64-6.95-13.28-10.27-19.91-2.37-4.74-4.58-9.33-6.32-14.22-.63-1.42-1.26-1.42-2.05,0-1.9,2.21-3.95,4.58-6.01,6.8-.47.32-.95.95-1.26,1.74-.16.32-.16.79-.16,1.11.16-.16.47-.32.79-.47.79,0,1.42-.16,2.05-.47s1.42-.47,2.05-.47c5.69,3.16,9.8,7.74,12.49,13.59.16.79,0,1.74-.32,2.69-.95.79-2.05,1.11-3.48.95-2.21-.47-4.58-1.26-6.8-2.21-1.26-.47-2.53-.79-3.95-.79s-2.69.47-3.79,1.74c-.95.95-2.21,1.58-3.64,2.05-.47.16-.95.32-1.58.32,0-.63.16-1.11.47-1.58.63-.95,1.11-2.05,1.74-2.85.32-2.05.63-3.95.95-6.01-.32-.47-.63-.79-1.11-.95-.47,0-.95.32-1.11.63-3.48,5.06-6.64,10.27-9.96,15.49-.16.63-.47,1.26-.79,2.05.63-.32,1.42-.63,2.05-1.11l2.21-.95c0,.47.16,1.11.32,1.58,0,.47,0,.95-.16,1.74,0,.63.32.95.79.95.63,0,1.11-.16,1.58-.47,4.58-2.05,9.17-4.27,13.59-6.48,2.53-1.58,5.06-1.74,7.59-.63,2.84.63,5.53,1.74,8.22,3,2.69,1.26,4.9,3,6.64,5.37.16.16.32.16.47.16ZM291.35,215.06c-1.74-.47-3,.16-3.79,2.05-1.11,1.11-1.26,2.37-.32,3.79,1.11,1.9,1.9,3.79,2.84,5.69.16.32.47.47.79.63,1.9.47,3.95.95,6.01,1.26.32-.32.63-.32.95-.32,3.95-3.16,8.06-6.16,12.17-9.01v-.95c-1.11-.32-2.21-.47-3.32-.79-5.06-.47-10.12-1.42-15.33-2.37ZM312.06,174.29c-.32-.47-.63-.79-1.11-1.26-1.58-.79-3.16-1.58-4.74-2.05-1.11-.63-2.05-.47-2.69.63-.79.95-1.58,1.42-2.53,1.74-3.95.95-7.27,2.85-9.96,5.69-.32.63-.47,1.11-.32,1.74.16.63.32,1.26.32,1.74.63-.32,1.26-.47,1.9-.79,1.26-1.11,2.53-1.9,3.95-2.69.95-.47,1.9-.63,2.84-.32,3,2.37,5.85,4.74,8.69,7.11l.79.79c0-.32.16-.47.47-.79.63-3.79,1.42-7.74,2.37-11.54ZM303.05,192.46l-10.91-2.05c0-.32-.16-.79-.47-1.11l-.32,1.58c0,2.53.16,5.22.32,7.9.32.16.47.32.79.32,3.48-1.9,6.95-3.95,10.43-6.16,0,0,.16-.16.16-.47ZM307.63,213.01c0,.16.16.32.32.32l5.53,1.9c.79,0,1.42-.32,2.05-.79,0-.16.16-.47.16-.63-.47-.16-1.11-.32-1.58-.47l-5.22-.32h-1.26ZM313.8,219.33h-1.58c-.63.47-1.26,1.11-1.58,1.9-.79.63-1.58,1.58-2.21,2.53.95-.63,1.74-1.42,2.53-2.21l2.84-2.21ZM310.16,207.32c.63.16,1.42.32,2.05.47,1.74-.16,3.32-.16,4.9-.32.32,0,.79,0,1.26.16.47.16.79,0,.79-.63h.47c.16-.16.32-.32.47-.47-.16-.16-.47-.16-.79-.32h-1.74c.63,0,1.11-.32,1.42-.79.47-.16.63-.47.79-.79.47-.32.79-.79,1.26-1.42-.79,0-1.42,0-2.21.16l-7.43,3.64c-.47,0-.95.16-1.26.32ZM320.44,216.48c.47.16.79.47,1.26.79.47.16.95.47,1.58.63,3.48,1.26,7.11,2.37,10.59,3.64.79-.32,1.42-.79,2.05-1.26-.63-.16-1.11-.47-1.58-.79l-9.33-2.69c-.95-.32-1.9-.63-2.84-.95-.63,0-1.26.32-1.74.63Z" style="fill:#b8202b;"/><path d="M314.27,361.79c-.47-.47-1.11-.79-2.05-.95l1.26,2.69c0,.32,0,.63.16.95-.32,0-.63,0-.95.16-.32.16-.47.47-.63.79l.32.95h-1.11c-3-1.26-5.53-3.32-7.27-6.01l-1.9-2.21c-1.74-2.53-3.16-5.06-4.27-8.06-.95-2.84-1.9-5.69-2.69-8.53-.16-.47-.32-.95-.47-1.42l-.95.95c-.95.95-1.74,2.05-2.53,3.32-.79,1.26-.95,2.53-.47,4.11.32,1.42.79,2.69,1.26,3.95.79,1.11,1.42,2.37,1.9,3.48.47,1.26.63,2.53.32,3.95-.16,1.11-.47,2.21-.79,3.32-.32.63-.79,1.11-1.58,1.26-5.06.16-9.17-1.58-12.64-5.53-1.42-2.05-2.84-4.27-4.11-6.48-.32-.47-.79-.95-1.26-1.26-.16.47-.47.79-.79,1.26l-5.53,9.8c-.16.63-.16,1.26,0,1.74,1.11,2.05,2.21,3.79,3.48,5.53.47.95.95.95,1.42,0,1.74-1.9,3.48-3.79,5.22-5.53.16-.16.32-.32.47-.47v.79c-1.42,2.37-2.85,4.74-4.43,7.11-.63,1.11-.79,2.21-.47,3.48,1.58,4.74,1.9,9.64.95,14.7-.47,2.21-.95,4.27-1.74,6.32-.32.95-1.11,1.26-2.05,1.42-1.74-.63-3.32-1.42-4.74-2.37-1.42-1.11-2.37-2.37-3-4.11-.63-.95-.95-2.21-.95-3.32,0-2.37.16-4.58.63-6.95.32-1.26.95-2.37,1.9-3.48,1.58-1.42,2.37-3.16,2.05-5.21-.32-1.9-.95-3.95-1.58-5.85-1.42,1.11-2.84,2.21-4.43,3.16-2.53,1.74-5.22,3.48-7.74,5.37-2.69,1.74-5.22,3.95-7.43,6.32-.95.63-1.9,1.42-2.84,2.05.16-.95.32-2.05.47-3,.16-1.11.47-2.05.95-2.85,5.37-9.8,9.48-19.91,12.64-30.66.79-1.11.63-1.58-.63-1.42-3.95.95-7.43-.16-10.12-3.16-.47-.63-.95-1.11-1.26-1.74-.47-.63-.47-1.26-.16-2.05.32-.63.63-1.26.95-1.9,2.53-5.22,5.53-10.43,9.17-15.17.16-.47.47-.79.95-1.26.47.47.63,1.11.79,1.74.16,1.11.16,2.21.32,3.16,0,.63.32,1.11.79,1.58.32-.16.63-.47,1.11-.63,3.16-3.79,6.48-7.43,9.96-11.06,2.37-2.37,4.9-4.27,7.59-5.85.63,0,1.26.32,1.9.63,2.53,1.11,4.9,2.53,7.11,4.11,1.9,1.11,3,2.69,3.16,4.58,0,2.05-.47,3.79-1.58,5.37-1.74,3.48-3.48,7.11-5.06,10.75-.63,1.58-1.26,3.32-2.05,5.06-.63,1.26-.16,2.21,1.11,2.84,1.9,1.11,3.79,2.21,5.85,3.16.63.16,1.26.16,1.74-.32,2.21-2.53,4.27-5.06,6.32-7.74.32-.47.32-1.11.16-1.58v-7.59c.16-3.48,1.74-6.01,4.74-7.9.47-.32.95-.63,1.42-.79v1.42c.16,2.21-.32,4.43-1.42,6.48-.16.95-.16,1.9,0,2.69.32.95.47,1.9.63,2.84.32,4.11,1.11,8.06,2.05,12.01,1.11,3.95,3,7.43,5.69,10.75,1.74,1.58,3.48,3.16,5.37,4.9l1.42,1.42ZM255.95,295.73c-.79-.95-.63-1.9.32-2.84.95-.79,1.9-1.58,2.53-2.37,3.79-3.16,7.59-6.16,11.7-9.17,1.42-1.11,2.84-1.11,4.27-.16,2.21,1.26,4.42,2.69,6.64,3.95,3.64,2.53,5.69,5.85,6.32,10.12-.16.47-.16.95,0,1.26.16.95.47,1.9.95,2.69-1.9,1.42-3.79,2.69-5.85,3.64-2.37,1.26-4.58,1.74-7.11,1.42-2.37-.47-4.74-.79-6.95-1.26-1.74,0-3.16.47-4.27,1.42-.95.79-1.42.63-1.42-.32,0-1.42-.32-2.85-1.42-3.79-.95-1.11-1.9-1.9-3.16-2.53-.79-.32-1.74-1.11-2.53-2.05ZM370.54,322.91c1.11,2.05,1.58,5.37,1.42,9.96,0,4.74-2.21,9.96-6.64,15.65-2.69,2.53-5.37,5.21-8.22,7.59-.63,1.58-1.58,2.69-2.69,3.79-.95.95-2.05,1.42-3.48,1.74-5.53.47-11.06,1.11-16.6,1.42-.47.32-.95.79-1.42,1.42-1.11,2.37-1.74,4.9-2.05,7.43-.16,2.69-.32,5.37-.32,7.9-.47,2.53-.79,5.22-.95,7.9-.63,3.79-.95,6.95-.95,9.33.16,2.37.47,4.74,1.11,7.11.16.95-.16,1.58-.95,2.05-.79.32-1.74.47-2.53.32-3.32-1.11-5.22-3.48-6.01-6.95-.16-1.11.16-2.05.95-3,1.58-1.58,2.21-3.48,1.9-5.69-.32-1.11-.63-2.21-.79-3.32-.79-7.9-1.74-15.65-2.69-23.55.16-.79,0-1.58-.16-2.37-1.26-.95-2.85-1.42-4.43-1.74-3.16-.95-4.11-2.84-3-5.85,1.42-3.16,2.84-6.16,4.27-9.33.16-.32.32-.79.32-1.26h-1.42c-3.16.95-6.16.32-8.85-1.9-1.26-1.11-1.26-2.21,0-3.48,3.95-3.32,7.74-6.64,11.54-10.12.79-.47,1.26-1.11,1.42-1.9,0-2.69-.32-5.37-.95-7.9-.32-.16-.47-.16-.79,0l-2.05,3.79c-.47.47-1.11.95-1.9,1.26-.32-.63-.47-1.42-.32-2.21.79-1.58,1.74-3,3-4.58,1.42-1.42,2.05-3.16,1.9-5.21,0-6.48.32-13.12.63-19.6.47-4.74,1.11-9.33,1.9-14.07.16-2.84.79-5.53,1.74-8.22.32-.63.79-1.26,1.42-1.58.47-.47,1.11-.79,1.58-1.26.63-.32,1.11-.63,1.58-.79.32-.16.79-.32,1.26-.16,1.42,1.42,2.37,3,3,4.9l2.53,13.59c.63,3,.79,6.01.47,9.01-.32,3.16-.63,6.16-1.11,9.17-.16.32-.16.95-.16,1.58-.16.63.16.95.95.95.63-.16,1.11-.16,1.58-.47,2.37-.63,4.74-.95,7.11-1.26,3.79-.32,7.27.63,10.27,3.16,4.58,3.63,9.17,7.59,13.75,11.38,1.42,1.74,2.69,3.48,3.79,5.37ZM309.53,360.53c.79.47,1.74.63,2.69.32-1.11-.95-2.21-1.9-3.48-2.84-.47-.32-.95-.32-1.42-.32,0,.32,0,.63.16.79.63.79,1.26,1.42,2.05,2.05ZM347.15,319.43c.63-3.95-.79-6.16-3.95-6.8-.79-.32-1.58-.63-2.37-.95-1.42-.47-2.69-.79-3.95-.79-1.11.16-1.9.47-2.69.95-.79.16-1.26.63-1.42,1.26-.32,1.26-.47,2.69-.79,4.11-.63,2.53,0,4.42,2.21,5.69,1.74,1.11,3.32,2.21,4.58,3.63,1.58,1.58,3,3.32,4.27,5.22,0,.47.16.79.47.95.32-.16.47-.47.47-.95,1.58-4.27,2.53-8.38,3.16-12.33ZM342.25,334.45c-.63,0-1.11,0-1.58.16-2.21.95-4.27,1.74-6.32,2.69l-.95,1.26c-.16,1.58-.32,3.16-.47,4.58.32.63.63,1.26.79,2.05.63-.47,1.26-1.11,1.9-1.74l6.16-7.75c.16-.32.32-.79.47-1.26Z" style="fill:#b8202b;"/><path d="M150.38,168.92c-1.24-.31-2.37-.82-3.61-1.34-1.13-.52-2.06-1.34-2.68-2.47-1.34-1.75-2.37-3.5-3.09-5.56-.31-1.24-.21-2.47.41-3.71.72-1.85,1.75-3.5,2.99-5.05.72-1.44,1.65-2.68,2.78-3.91.31-.31.62-.52,1.13-.52.41.31.72.82.72,1.34.31,1.96.51,4.02.51,5.87,0,1.13.52,1.44,1.54,1.13.31-.21.52-.31.82-.41.21-.1.41-.21.72-.21-.1.31-.21.52-.31.82l-1.24,2.06c-.41,1.44-.31,2.88.21,4.43.52,2.06.41,4.12-.41,6.18-.31.52-.41.93-.51,1.34ZM212.29,152.75c-.1.41-.31.72-.51.93-1.44,2.47-3.4,4.64-5.77,6.39-1.24.72-2.27,1.65-3.09,2.78-3.4,4.53-7.52,8.04-12.36,10.71-1.75,1.03-3.5,2.06-5.15,3.3-2.78,1.65-5.67,3.3-8.45,4.74-4.22,1.96-8.45,3.81-12.67,5.77-3.81,1.75-7.73,3.5-11.64,5.25-1.96.62-4.02,1.13-6.08,1.55-.21-.1-.41-.21-.51-.21.1-.1.31-.21.41-.31.72-.41,1.54-.72,2.37-1.03,4.53-1.85,8.96-3.91,13.29-6.18,4.43-2.27,8.45-4.94,12.26-8.04,7.73-6.49,13.6-14.32,17.51-23.69,1.65-3.81,2.47-7.73,2.47-11.85,0-.62-.21-1.13-.72-1.44-1.44-.82-2.99-1.65-4.43-2.47-1.24-.93-2.58-.82-3.81.1-2.68,2.27-5.36,4.43-8.14,6.49-1.24,1.13-2.47,2.16-3.71,3.09-1.96,1.55-3.91,2.99-5.97,4.43-1.44.93-3.09,1.55-4.84,1.96-1.75.41-3.5.72-5.15,1.03-.72-.1-1.34-.31-1.96-.82.1-.62.21-1.24.31-1.75.1-.62.52-.93,1.24-1.03.62-.1,1.24-.31,1.75-.72,6.08-4.12,12.16-8.14,18.23-12.05.72-.62,1.54-1.13,2.27-1.65l.82-.62c-.21-.21-.51-.31-.93-.41-1.96-.21-3.91-.41-5.87-.82-.51.1-.93.1-1.24-.1-1.96-.72-3.81-.82-5.56,0-1.75.72-3.4,1.65-4.94,2.78-2.88,1.65-5.77,3.3-8.65,4.94-.41.21-.72.31-1.13.31.21-.31.41-.62.72-.82,2.47-2.06,5.05-3.91,7.73-5.67,3.4-1.65,5.87-4.12,7.42-7.52.51-1.13.62-2.27.41-3.5-.21-1.13-.52-2.27-.82-3.4-.21-.31-.52-.72-.93-1.03-.31-.31-.82-.51-1.24-.72-.82-.52-.93-1.03-.21-1.75.21-.41.41-.93.62-1.44.51-.93,1.24-1.65,1.96-2.27,2.06-1.44,4.12-2.88,6.18-4.12.62-.21,1.24-.52,1.85-.72,1.75-.72,3.3-.41,4.63.93,4.53,3.81,6.9,8.65,6.9,14.63v6.49c.1.21.31.31.41.41,1.75-.52,3.4-.62,4.94-.1,1.65.41,3.3.93,4.84,1.44,1.54.51,2.99,1.13,4.33,1.75,4.43,2.37,7.62,5.77,9.79,10.2.93,1.85,1.24,3.81.82,5.87Z" style="fill:#b31f2b;"/><path d="M203.53,230.86c.62.82,1.13,1.65,1.54,2.47.52.93.82,1.75.93,2.78-.21.93-.52,1.75-1.13,2.47-3.61,3.4-7.42,6.8-11.23,10.1l-6.59,5.87c-.1.21-.1.41,0,.72,1.03.52,1.85,1.34,2.37,2.37.41,1.13.72,2.16.62,3.3,0,1.24-.1,2.37-.21,3.5-.31,3.81-.41,7.62-.41,11.33-.1,1.13-.21,2.27-.41,3.4-.31,1.03-.72,2.16-1.34,3.09-.62,1.03-1.24,1.96-1.85,2.88-1.24,1.13-2.37.93-3.09-.51-1.03-1.96-1.96-3.92-2.68-5.97-.31-.52-.62-1.03-.82-1.65,0-.72.31-1.44.82-1.96,1.03-.82,1.55-1.85,1.44-3.09l-.21-10.2c0-.31-.1-.62-.21-1.03-.1-.82-.41-.93-1.03-.31-4.02,3.3-8.34,6.18-13.08,8.55-1.75.93-3.61,1.85-5.25,2.88-.62.31-1.13.41-1.75.31-.62,0-1.03-.31-1.44-.93-.41-.52-.41-1.03-.1-1.44.31-.41.62-.82.93-1.13,1.85-1.96,3.81-3.71,5.97-5.25,2.16-1.44,4.22-2.99,6.18-4.64.31-.21.62-.31.93-.31l-.62.62c-1.65,1.75-3.4,3.4-5.15,5.15-.1.21-.21.41-.21.72s0,.62-.1.82c.51.1,1.03.1,1.44,0,4.12-1.44,7.73-3.61,10.92-6.49.21-.31.31-.52.41-.72-.21-.1-.51-.21-.82-.21-.21-.21-.31-.31-.51-.21,0-.21.1-.41.41-.62.72-.82,1.54-1.65,2.37-2.47.93-.72,1.96-1.24,3.09-1.34.41-.1.62-.21.82-.52,4.02-4.53,7.21-9.58,9.58-15.14.1-.31.21-.72.41-1.03.21-.52.21-.93.1-1.34-.1-.41-.41-.72-1.03-.72-.82-.1-1.44-.62-1.65-1.44,0-.21,0-.41.21-.62.21-.1.31-.31.41-.41.21-.21.31-.31.41-.52,1.13-1.03,2.27-1.65,3.61-2.06,1.34-.31,2.68-.62,4.02-.93h.72c.93.41,1.65,1.13,2.27,1.85Z" style="fill:#b31f2b;"/><path d="M205.28,354.16c-.51-.1-1.03,0-1.34.41-.52.41-.82.82-1.13,1.44-.52,1.13-1.24,2.16-2.16,3.19-.93.72-1.85,1.44-2.88,2.06-1.03.72-1.85,1.44-2.58,2.47-1.34,1.44-2.78,2.68-4.53,3.61-.72.41-1.34.82-1.96,1.24-.62.72-.82,1.44-.51,2.37.82,2.37,1.65,4.84,2.58,7.21,1.24,3.61,2.47,7.11,3.61,10.82.62,1.96,1.24,3.81,1.85,5.77.41.82.51,1.65.31,2.37-.1.72-.31,1.44-.41,2.27-.21.51-.51.82-1.03.82s-.93-.21-1.24-.62c-2.06-1.96-4.12-4.02-6.18-6.08,0-.62.1-1.13.41-1.54,1.75-1.65,2.16-3.71,1.24-5.97-1.65-4.43-3.3-8.86-5.05-13.29-.1-.52-.41-.82-.93-1.03-.51-.1-1.13.1-1.65.72-.31.51-.82,1.03-1.54,1.34-4.22,2.27-8.55,4.33-12.88,6.49-1.34.51-2.58,1.13-3.91,1.85-3.3,2.06-6.8,3.4-10.61,4.02-4.02.72-7.21-.41-9.79-3.6-.93-.93-1.44-1.96-1.65-3.19-.21-1.13.1-2.27.93-3.3,2.47-3.61,5.05-7.21,7.62-10.71.31-.21.51-.31.82-.52.1.41.1.62,0,.93-.31,2.06-.62,4.12-1.13,6.18-.1.93.31,1.24,1.34.82,3.61-1.44,7.21-2.88,10.82-4.22,5.36-2.37,10.82-4.74,16.38-6.9.93-.31,1.24-1.03.82-2.06-1.03-2.06-2.06-4.33-3.09-6.59-.1-.62-.52-.82-1.13-.62-2.88,1.34-5.77,1.24-8.65-.21-.62-.21-1.13-.1-1.55.21-3.19,2.27-6.28,4.63-9.37,7.21-.31.1-.51.31-.72.51.21-.31.31-.62.41-.82,1.85-2.68,3.91-5.25,5.97-7.73.82-.93.62-1.55-.52-1.96-1.54-.52-3.09-1.24-4.53-1.96-.41-.21-.82-.41-1.34-.51-2.06-.41-2.47-1.34-1.13-2.88,1.03-1.03,2.06-2.16,3.09-3.19,1.03-1.13,2.37-1.75,3.81-1.96.41,0,.93-.21,1.34-.51,1.96-1.13,4.02-2.27,5.97-3.61.52-.31.62-.72.52-1.24-1.03-3.3-2.16-6.59-3.5-9.68-.21-.21-.51-.31-.93-.31-.72.21-1.03,0-1.03-.82,0-.51.1-1.03.31-1.54,1.75-1.54,3.4-3.09,5.15-4.64h.62c.93.82,1.54,1.75,1.85,2.88.21,1.13.41,2.27.41,3.3.41,2.58,1.03,5.15,1.85,7.62.21.51.51.72.93.62.41-.1.82-.31,1.13-.52.62-.41,1.34-.82,1.96-1.13.72-.21,1.34-.21,2.16,0l.72.31c1.34.82,2.68,1.65,4.02,2.58,1.34.82,2.47,1.96,3.5,3.19.51.82,1.13,1.65,1.54,2.47.52.93.62,1.85.31,2.78,0,.41.1.82.41,1.13.51.72.41,1.03-.52,1.03-.21.21-.21.51-.21.72.52.21.93.41,1.34.62,1.85.21,3.5.62,5.25,1.24,2.47.82,4.94,1.85,7.42,2.99,1.85.93,2.68,2.37,2.27,4.33.1.41.21.82.31,1.34ZM197.97,351.28c.62-.52.62-1.03.1-1.65-.51-.51-1.03-.93-1.65-1.24-.1-.1-.21-.21-.21-.31-2.06-1.85-4.43-2.99-7.21-3.3h-4.02v-.21c-.31.1-.62.31-.93.52-.72.82-1.54,1.65-2.16,2.47-.51.52-.72,1.13-.62,1.85.52,2.78,1.13,5.56,1.75,8.34.21.82.62,1.13,1.24.72,4.02-1.85,8.04-3.92,11.95-6.08.62-.21,1.13-.62,1.75-1.13Z" style="fill:#b31f2b;"/><path d="M150.38,168.92c-1.24-.31-2.37-.82-3.61-1.34-1.13-.52-2.06-1.34-2.68-2.47-1.34-1.75-2.37-3.5-3.09-5.56-.31-1.24-.21-2.47.41-3.71.72-1.85,1.75-3.5,2.99-5.05.72-1.44,1.65-2.68,2.78-3.91.31-.31.62-.52,1.13-.52.41.31.72.82.72,1.34.31,1.96.51,4.02.51,5.87,0,1.13.52,1.44,1.54,1.13.31-.21.52-.31.82-.41.21-.1.41-.21.72-.21-.1.31-.21.52-.31.82l-1.24,2.06c-.41,1.44-.31,2.88.21,4.43.52,2.06.41,4.12-.41,6.18-.31.52-.41.93-.51,1.34ZM212.29,152.75c-.1.41-.31.72-.51.93-1.44,2.47-3.4,4.64-5.77,6.39-1.24.72-2.27,1.65-3.09,2.78-3.4,4.53-7.52,8.04-12.36,10.71-1.75,1.03-3.5,2.06-5.15,3.3-2.78,1.65-5.67,3.3-8.45,4.74-4.22,1.96-8.45,3.81-12.67,5.77-3.81,1.75-7.73,3.5-11.64,5.25-1.96.62-4.02,1.13-6.08,1.55-.21-.1-.41-.21-.51-.21.1-.1.31-.21.41-.31.72-.41,1.54-.72,2.37-1.03,4.53-1.85,8.96-3.91,13.29-6.18,4.43-2.27,8.45-4.94,12.26-8.04,7.73-6.49,13.6-14.32,17.51-23.69,1.65-3.81,2.47-7.73,2.47-11.85,0-.62-.21-1.13-.72-1.44-1.44-.82-2.99-1.65-4.43-2.47-1.24-.93-2.58-.82-3.81.1-2.68,2.27-5.36,4.43-8.14,6.49-1.24,1.13-2.47,2.16-3.71,3.09-1.96,1.55-3.91,2.99-5.97,4.43-1.44.93-3.09,1.55-4.84,1.96-1.75.41-3.5.72-5.15,1.03-.72-.1-1.34-.31-1.96-.82.1-.62.21-1.24.31-1.75.1-.62.52-.93,1.24-1.03.62-.1,1.24-.31,1.75-.72,6.08-4.12,12.16-8.14,18.23-12.05.72-.62,1.54-1.13,2.27-1.65l.82-.62c-.21-.21-.51-.31-.93-.41-1.96-.21-3.91-.41-5.87-.82-.51.1-.93.1-1.24-.1-1.96-.72-3.81-.82-5.56,0-1.75.72-3.4,1.65-4.94,2.78-2.88,1.65-5.77,3.3-8.65,4.94-.41.21-.72.31-1.13.31.21-.31.41-.62.72-.82,2.47-2.06,5.05-3.91,7.73-5.67,3.4-1.65,5.87-4.12,7.42-7.52.51-1.13.62-2.27.41-3.5-.21-1.13-.52-2.27-.82-3.4-.21-.31-.52-.72-.93-1.03-.31-.31-.82-.51-1.24-.72-.82-.52-.93-1.03-.21-1.75.21-.41.41-.93.62-1.44.51-.93,1.24-1.65,1.96-2.27,2.06-1.44,4.12-2.88,6.18-4.12.62-.21,1.24-.52,1.85-.72,1.75-.72,3.3-.41,4.63.93,4.53,3.81,6.9,8.65,6.9,14.63v6.49c.1.21.31.31.41.41,1.75-.52,3.4-.62,4.94-.1,1.65.41,3.3.93,4.84,1.44,1.54.51,2.99,1.13,4.33,1.75,4.43,2.37,7.62,5.77,9.79,10.2.93,1.85,1.24,3.81.82,5.87Z" style="fill:none; stroke:#fbb03b; stroke-width:8px;"/><path d="M203.53,230.86c.62.82,1.13,1.65,1.54,2.47.52.93.82,1.75.93,2.78-.21.93-.52,1.75-1.13,2.47-3.61,3.4-7.42,6.8-11.23,10.1l-6.59,5.87c-.1.21-.1.41,0,.72,1.03.52,1.85,1.34,2.37,2.37.41,1.13.72,2.16.62,3.3,0,1.24-.1,2.37-.21,3.5-.31,3.81-.41,7.62-.41,11.33-.1,1.13-.21,2.27-.41,3.4-.31,1.03-.72,2.16-1.34,3.09-.62,1.03-1.24,1.96-1.85,2.88-1.24,1.13-2.37.93-3.09-.51-1.03-1.96-1.96-3.92-2.68-5.97-.31-.52-.62-1.03-.82-1.65,0-.72.31-1.44.82-1.96,1.03-.82,1.55-1.85,1.44-3.09l-.21-10.2c0-.31-.1-.62-.21-1.03-.1-.82-.41-.93-1.03-.31-4.02,3.3-8.34,6.18-13.08,8.55-1.75.93-3.61,1.85-5.25,2.88-.62.31-1.13.41-1.75.31-.62,0-1.03-.31-1.44-.93-.41-.52-.41-1.03-.1-1.44.31-.41.62-.82.93-1.13,1.85-1.96,3.81-3.71,5.97-5.25,2.16-1.44,4.22-2.99,6.18-4.64.31-.21.62-.31.93-.31l-.62.62c-1.65,1.75-3.4,3.4-5.15,5.15-.1.21-.21.41-.21.72s0,.62-.1.82c.51.1,1.03.1,1.44,0,4.12-1.44,7.73-3.61,10.92-6.49.21-.31.31-.52.41-.72-.21-.1-.51-.21-.82-.21-.21-.21-.31-.31-.51-.21,0-.21.1-.41.41-.62.72-.82,1.54-1.65,2.37-2.47.93-.72,1.96-1.24,3.09-1.34.41-.1.62-.21.82-.52,4.02-4.53,7.21-9.58,9.58-15.14.1-.31.21-.72.41-1.03.21-.52.21-.93.1-1.34-.1-.41-.41-.72-1.03-.72-.82-.1-1.44-.62-1.65-1.44,0-.21,0-.41.21-.62.21-.1.31-.31.41-.41.21-.21.31-.31.41-.52,1.13-1.03,2.27-1.65,3.61-2.06,1.34-.31,2.68-.62,4.02-.93h.72c.93.41,1.65,1.13,2.27,1.85Z" style="fill:none; stroke:#fbb03b; stroke-width:8px;"/><path d="M205.28,354.16c-.51-.1-1.03,0-1.34.41-.52.41-.82.82-1.13,1.44-.52,1.13-1.24,2.16-2.16,3.19-.93.72-1.85,1.44-2.88,2.06-1.03.72-1.85,1.44-2.58,2.47-1.34,1.44-2.78,2.68-4.53,3.61-.72.41-1.34.82-1.96,1.24-.62.72-.82,1.44-.51,2.37.82,2.37,1.65,4.84,2.58,7.21,1.24,3.61,2.47,7.11,3.61,10.82.62,1.96,1.24,3.81,1.85,5.77.41.82.51,1.65.31,2.37-.1.72-.31,1.44-.41,2.27-.21.51-.51.82-1.03.82s-.93-.21-1.24-.62c-2.06-1.96-4.12-4.02-6.18-6.08,0-.62.1-1.13.41-1.54,1.75-1.65,2.16-3.71,1.24-5.97-1.65-4.43-3.3-8.86-5.05-13.29-.1-.52-.41-.82-.93-1.03-.51-.1-1.13.1-1.65.72-.31.51-.82,1.03-1.54,1.34-4.22,2.27-8.55,4.33-12.88,6.49-1.34.51-2.58,1.13-3.91,1.85-3.3,2.06-6.8,3.4-10.61,4.02-4.02.72-7.21-.41-9.79-3.6-.93-.93-1.44-1.96-1.65-3.19-.21-1.13.1-2.27.93-3.3,2.47-3.61,5.05-7.21,7.62-10.71.31-.21.51-.31.82-.52.1.41.1.62,0,.93-.31,2.06-.62,4.12-1.13,6.18-.1.93.31,1.24,1.34.82,3.61-1.44,7.21-2.88,10.82-4.22,5.36-2.37,10.82-4.74,16.38-6.9.93-.31,1.24-1.03.82-2.06-1.03-2.06-2.06-4.33-3.09-6.59-.1-.62-.52-.82-1.13-.62-2.88,1.34-5.77,1.24-8.65-.21-.62-.21-1.13-.1-1.55.21-3.19,2.27-6.28,4.63-9.37,7.21-.31.1-.51.31-.72.51.21-.31.31-.62.41-.82,1.85-2.68,3.91-5.25,5.97-7.73.82-.93.62-1.55-.52-1.96-1.54-.52-3.09-1.24-4.53-1.96-.41-.21-.82-.41-1.34-.51-2.06-.41-2.47-1.34-1.13-2.88,1.03-1.03,2.06-2.16,3.09-3.19,1.03-1.13,2.37-1.75,3.81-1.96.41,0,.93-.21,1.34-.51,1.96-1.13,4.02-2.27,5.97-3.61.52-.31.62-.72.52-1.24-1.03-3.3-2.16-6.59-3.5-9.68-.21-.21-.51-.31-.93-.31-.72.21-1.03,0-1.03-.82,0-.51.1-1.03.31-1.54,1.75-1.54,3.4-3.09,5.15-4.64h.62c.93.82,1.54,1.75,1.85,2.88.21,1.13.41,2.27.41,3.3.41,2.58,1.03,5.15,1.85,7.62.21.51.51.72.93.62.41-.1.82-.31,1.13-.52.62-.41,1.34-.82,1.96-1.13.72-.21,1.34-.21,2.16,0l.72.31c1.34.82,2.68,1.65,4.02,2.58,1.34.82,2.47,1.96,3.5,3.19.51.82,1.13,1.65,1.54,2.47.52.93.62,1.85.31,2.78,0,.41.1.82.41,1.13.51.72.41,1.03-.52,1.03-.21.21-.21.51-.21.72.52.21.93.41,1.34.62,1.85.21,3.5.62,5.25,1.24,2.47.82,4.94,1.85,7.42,2.99,1.85.93,2.68,2.37,2.27,4.33.1.41.21.82.31,1.34ZM197.97,351.28c.62-.52.62-1.03.1-1.65-.51-.51-1.03-.93-1.65-1.24-.1-.1-.21-.21-.21-.31-2.06-1.85-4.43-2.99-7.21-3.3h-4.02v-.21c-.31.1-.62.31-.93.52-.72.82-1.54,1.65-2.16,2.47-.51.52-.72,1.13-.62,1.85.52,2.78,1.13,5.56,1.75,8.34.21.82.62,1.13,1.24.72,4.02-1.85,8.04-3.92,11.95-6.08.62-.21,1.13-.62,1.75-1.13Z" style="fill:none; stroke:#fbb03b; stroke-width:8px;"/><path d="M150.38,168.92c-1.24-.31-2.37-.82-3.61-1.34-1.13-.52-2.06-1.34-2.68-2.47-1.34-1.75-2.37-3.5-3.09-5.56-.31-1.24-.21-2.47.41-3.71.72-1.85,1.75-3.5,2.99-5.05.72-1.44,1.65-2.68,2.78-3.91.31-.31.62-.52,1.13-.52.41.31.72.82.72,1.34.31,1.96.51,4.02.51,5.87,0,1.13.52,1.44,1.54,1.13.31-.21.52-.31.82-.41.21-.1.41-.21.72-.21-.1.31-.21.52-.31.82l-1.24,2.06c-.41,1.44-.31,2.88.21,4.43.52,2.06.41,4.12-.41,6.18-.31.52-.41.93-.51,1.34ZM212.29,152.75c-.1.41-.31.72-.51.93-1.44,2.47-3.4,4.64-5.77,6.39-1.24.72-2.27,1.65-3.09,2.78-3.4,4.53-7.52,8.04-12.36,10.71-1.75,1.03-3.5,2.06-5.15,3.3-2.78,1.65-5.67,3.3-8.45,4.74-4.22,1.96-8.45,3.81-12.67,5.77-3.81,1.75-7.73,3.5-11.64,5.25-1.96.62-4.02,1.13-6.08,1.55-.21-.1-.41-.21-.51-.21.1-.1.31-.21.41-.31.72-.41,1.54-.72,2.37-1.03,4.53-1.85,8.96-3.91,13.29-6.18,4.43-2.27,8.45-4.94,12.26-8.04,7.73-6.49,13.6-14.32,17.51-23.69,1.65-3.81,2.47-7.73,2.47-11.85,0-.62-.21-1.13-.72-1.44-1.44-.82-2.99-1.65-4.43-2.47-1.24-.93-2.58-.82-3.81.1-2.68,2.27-5.36,4.43-8.14,6.49-1.24,1.13-2.47,2.16-3.71,3.09-1.96,1.55-3.91,2.99-5.97,4.43-1.44.93-3.09,1.55-4.84,1.96-1.75.41-3.5.72-5.15,1.03-.72-.1-1.34-.31-1.96-.82.1-.62.21-1.24.31-1.75.1-.62.52-.93,1.24-1.03.62-.1,1.24-.31,1.75-.72,6.08-4.12,12.16-8.14,18.23-12.05.72-.62,1.54-1.13,2.27-1.65l.82-.62c-.21-.21-.51-.31-.93-.41-1.96-.21-3.91-.41-5.87-.82-.51.1-.93.1-1.24-.1-1.96-.72-3.81-.82-5.56,0-1.75.72-3.4,1.65-4.94,2.78-2.88,1.65-5.77,3.3-8.65,4.94-.41.21-.72.31-1.13.31.21-.31.41-.62.72-.82,2.47-2.06,5.05-3.91,7.73-5.67,3.4-1.65,5.87-4.12,7.42-7.52.51-1.13.62-2.27.41-3.5-.21-1.13-.52-2.27-.82-3.4-.21-.31-.52-.72-.93-1.03-.31-.31-.82-.51-1.24-.72-.82-.52-.93-1.03-.21-1.75.21-.41.41-.93.62-1.44.51-.93,1.24-1.65,1.96-2.27,2.06-1.44,4.12-2.88,6.18-4.12.62-.21,1.24-.52,1.85-.72,1.75-.72,3.3-.41,4.63.93,4.53,3.81,6.9,8.65,6.9,14.63v6.49c.1.21.31.31.41.41,1.75-.52,3.4-.62,4.94-.1,1.65.41,3.3.93,4.84,1.44,1.54.51,2.99,1.13,4.33,1.75,4.43,2.37,7.62,5.77,9.79,10.2.93,1.85,1.24,3.81.82,5.87Z" style="fill:#b8202b;"/><path d="M203.53,230.86c.62.82,1.13,1.65,1.54,2.47.52.93.82,1.75.93,2.78-.21.93-.52,1.75-1.13,2.47-3.61,3.4-7.42,6.8-11.23,10.1l-6.59,5.87c-.1.21-.1.41,0,.72,1.03.52,1.85,1.34,2.37,2.37.41,1.13.72,2.16.62,3.3,0,1.24-.1,2.37-.21,3.5-.31,3.81-.41,7.62-.41,11.33-.1,1.13-.21,2.27-.41,3.4-.31,1.03-.72,2.16-1.34,3.09-.62,1.03-1.24,1.96-1.85,2.88-1.24,1.13-2.37.93-3.09-.51-1.03-1.96-1.96-3.92-2.68-5.97-.31-.52-.62-1.03-.82-1.65,0-.72.31-1.44.82-1.96,1.03-.82,1.55-1.85,1.44-3.09l-.21-10.2c0-.31-.1-.62-.21-1.03-.1-.82-.41-.93-1.03-.31-4.02,3.3-8.34,6.18-13.08,8.55-1.75.93-3.61,1.85-5.25,2.88-.62.31-1.13.41-1.75.31-.62,0-1.03-.31-1.44-.93-.41-.52-.41-1.03-.1-1.44.31-.41.62-.82.93-1.13,1.85-1.96,3.81-3.71,5.97-5.25,2.16-1.44,4.22-2.99,6.18-4.64.31-.21.62-.31.93-.31l-.62.62c-1.65,1.75-3.4,3.4-5.15,5.15-.1.21-.21.41-.21.72s0,.62-.1.82c.51.1,1.03.1,1.44,0,4.12-1.44,7.73-3.61,10.92-6.49.21-.31.31-.52.41-.72-.21-.1-.51-.21-.82-.21-.21-.21-.31-.31-.51-.21,0-.21.1-.41.41-.62.72-.82,1.54-1.65,2.37-2.47.93-.72,1.96-1.24,3.09-1.34.41-.1.62-.21.82-.52,4.02-4.53,7.21-9.58,9.58-15.14.1-.31.21-.72.41-1.03.21-.52.21-.93.1-1.34-.1-.41-.41-.72-1.03-.72-.82-.1-1.44-.62-1.65-1.44,0-.21,0-.41.21-.62.21-.1.31-.31.41-.41.21-.21.31-.31.41-.52,1.13-1.03,2.27-1.65,3.61-2.06,1.34-.31,2.68-.62,4.02-.93h.72c.93.41,1.65,1.13,2.27,1.85Z" style="fill:#b8202b;"/><path d="M205.28,354.16c-.51-.1-1.03,0-1.34.41-.52.41-.82.82-1.13,1.44-.52,1.13-1.24,2.16-2.16,3.19-.93.72-1.85,1.44-2.88,2.06-1.03.72-1.85,1.44-2.58,2.47-1.34,1.44-2.78,2.68-4.53,3.61-.72.41-1.34.82-1.96,1.24-.62.72-.82,1.44-.51,2.37.82,2.37,1.65,4.84,2.58,7.21,1.24,3.61,2.47,7.11,3.61,10.82.62,1.96,1.24,3.81,1.85,5.77.41.82.51,1.65.31,2.37-.1.72-.31,1.44-.41,2.27-.21.51-.51.82-1.03.82s-.93-.21-1.24-.62c-2.06-1.96-4.12-4.02-6.18-6.08,0-.62.1-1.13.41-1.54,1.75-1.65,2.16-3.71,1.24-5.97-1.65-4.43-3.3-8.86-5.05-13.29-.1-.52-.41-.82-.93-1.03-.51-.1-1.13.1-1.65.72-.31.51-.82,1.03-1.54,1.34-4.22,2.27-8.55,4.33-12.88,6.49-1.34.51-2.58,1.13-3.91,1.85-3.3,2.06-6.8,3.4-10.61,4.02-4.02.72-7.21-.41-9.79-3.6-.93-.93-1.44-1.96-1.65-3.19-.21-1.13.1-2.27.93-3.3,2.47-3.61,5.05-7.21,7.62-10.71.31-.21.51-.31.82-.52.1.41.1.62,0,.93-.31,2.06-.62,4.12-1.13,6.18-.1.93.31,1.24,1.34.82,3.61-1.44,7.21-2.88,10.82-4.22,5.36-2.37,10.82-4.74,16.38-6.9.93-.31,1.24-1.03.82-2.06-1.03-2.06-2.06-4.33-3.09-6.59-.1-.62-.52-.82-1.13-.62-2.88,1.34-5.77,1.24-8.65-.21-.62-.21-1.13-.1-1.55.21-3.19,2.27-6.28,4.63-9.37,7.21-.31.1-.51.31-.72.51.21-.31.31-.62.41-.82,1.85-2.68,3.91-5.25,5.97-7.73.82-.93.62-1.55-.52-1.96-1.54-.52-3.09-1.24-4.53-1.96-.41-.21-.82-.41-1.34-.51-2.06-.41-2.47-1.34-1.13-2.88,1.03-1.03,2.06-2.16,3.09-3.19,1.03-1.13,2.37-1.75,3.81-1.96.41,0,.93-.21,1.34-.51,1.96-1.13,4.02-2.27,5.97-3.61.52-.31.62-.72.52-1.24-1.03-3.3-2.16-6.59-3.5-9.68-.21-.21-.51-.31-.93-.31-.72.21-1.03,0-1.03-.82,0-.51.1-1.03.31-1.54,1.75-1.54,3.4-3.09,5.15-4.64h.62c.93.82,1.54,1.75,1.85,2.88.21,1.13.41,2.27.41,3.3.41,2.58,1.03,5.15,1.85,7.62.21.51.51.72.93.62.41-.1.82-.31,1.13-.52.62-.41,1.34-.82,1.96-1.13.72-.21,1.34-.21,2.16,0l.72.31c1.34.82,2.68,1.65,4.02,2.58,1.34.82,2.47,1.96,3.5,3.19.51.82,1.13,1.65,1.54,2.47.52.93.62,1.85.31,2.78,0,.41.1.82.41,1.13.51.72.41,1.03-.52,1.03-.21.21-.21.51-.21.72.52.21.93.41,1.34.62,1.85.21,3.5.62,5.25,1.24,2.47.82,4.94,1.85,7.42,2.99,1.85.93,2.68,2.37,2.27,4.33.1.41.21.82.31,1.34ZM197.97,351.28c.62-.52.62-1.03.1-1.65-.51-.51-1.03-.93-1.65-1.24-.1-.1-.21-.21-.21-.31-2.06-1.85-4.43-2.99-7.21-3.3h-4.02v-.21c-.31.1-.62.31-.93.52-.72.82-1.54,1.65-2.16,2.47-.51.52-.72,1.13-.62,1.85.52,2.78,1.13,5.56,1.75,8.34.21.82.62,1.13,1.24.72,4.02-1.85,8.04-3.92,11.95-6.08.62-.21,1.13-.62,1.75-1.13Z" style="fill:#b8202b;"/><path d="M323.83,39.37c12.53,4.04,24.68,9.1,36.32,15.15,3.53-6.8,7.06-13.6,10.59-20.4,9.24,4.8,18.2,10.15,26.81,16.04-3.17,4.64-6.35,9.28-9.52,13.92-4.79-3.27-9.68-6.37-14.68-9.28,1.02-1.74,2.03-3.48,3.05-5.22,3.33,1.94,6.63,3.96,9.86,6.06,1.11-1.71,2.22-3.43,3.33-5.14-5.18-3.35-10.47-6.51-15.87-9.47-2.93,5.35-5.86,10.69-8.8,16.04,8.54,4.68,16.78,9.89,24.7,15.61,5.69-7.86,11.37-15.73,17.05-23.6-12.41-8.96-25.55-16.82-39.27-23.5-3.35,6.89-6.71,13.78-10.06,20.67-8.32-4.05-16.89-7.62-25.65-10.7,1.86-5.3,3.73-10.61,5.59-15.91,5.81,2.04,11.53,4.28,17.17,6.72-.66,1.51-1.31,3.03-1.97,4.54-3.77-1.64-7.59-3.18-11.45-4.63-.72,1.91-1.44,3.82-2.16,5.73,5.78,2.18,11.46,4.57,17.06,7.16,2.41-5.19,4.83-10.39,7.24-15.59-9.87-4.59-20.02-8.57-30.41-11.91-2.97,9.23-5.95,18.47-8.92,27.71" style="fill:#ed1c24; fill-rule:evenodd;"/><path d="M241.17,29.49c13.14-.75,26.3-.4,39.34,1.04.84-7.62,1.68-15.23,2.52-22.85,10.35,1.14,20.63,2.91,30.79,5.3-1.28,5.47-2.57,10.94-3.86,16.42-5.64-1.33-11.33-2.45-17.04-3.37.32-1.99.64-3.98.96-5.97,3.8.61,7.61,1.31,11.39,2.1.42-2,.83-4,1.25-5.99-6.04-1.26-12.11-2.3-18.22-3.11-.81,6.04-1.61,12.09-2.43,18.13,9.65,1.29,19.22,3.18,28.66,5.66,2.47-9.39,4.93-18.77,7.4-28.15-14.8-3.89-29.89-6.48-45.1-7.76-.64,7.64-1.29,15.27-1.92,22.91-9.23-.78-18.5-1.02-27.79-.73-.17-5.62-.35-11.24-.52-16.86,6.15-.19,12.3-.16,18.44.08-.07,1.65-.13,3.3-.2,4.94-4.11-.17-8.23-.23-12.35-.2.02,2.04.03,4.08.05,6.12,6.18-.05,12.34.13,18.49.53.38-5.71.76-11.43,1.14-17.15-10.86-.72-21.77-.77-32.67-.15.56,9.68,1.11,19.37,1.67,29.06" style="fill:#ed1c24; fill-rule:evenodd;"/><path d="M160.49,50.09c11.98-5.44,24.38-9.86,37.07-13.21-1.96-7.4-3.92-14.81-5.88-22.22,10.06-2.66,20.29-4.72,30.63-6.15.77,5.57,1.55,11.14,2.32,16.7-5.74.8-11.45,1.8-17.11,3-.42-1.97-.84-3.95-1.26-5.92,3.77-.8,7.57-1.52,11.38-2.14-.33-2.02-.66-4.03-1-6.04-6.09,1-12.13,2.22-18.11,3.66,1.42,5.93,2.85,11.86,4.27,17.78,9.46-2.28,19.07-3.96,28.77-5.05-1.08-9.65-2.16-19.29-3.25-28.93-15.21,1.7-30.22,4.73-44.87,9.02,2.15,7.35,4.3,14.71,6.46,22.06-8.89,2.6-17.63,5.71-26.18,9.33-2.19-5.18-4.38-10.36-6.56-15.53,5.67-2.4,11.41-4.59,17.23-6.57.53,1.56,1.06,3.12,1.6,4.68-3.9,1.33-7.76,2.75-11.59,4.27.75,1.89,1.5,3.79,2.25,5.69,5.74-2.27,11.56-4.33,17.44-6.17-1.7-5.47-3.41-10.94-5.12-16.41-10.39,3.24-20.58,7.13-30.52,11.64,4.01,8.83,8.01,17.67,12.03,26.51" style="fill:#ed1c24; fill-rule:evenodd;"/><path d="M92.67,98.37c9.22-9.39,19.19-17.99,29.82-25.69-4.5-6.2-9-12.41-13.5-18.61,8.43-6.11,17.23-11.72,26.35-16.78,2.73,4.91,5.45,9.83,8.19,14.75-5.07,2.81-10.03,5.8-14.88,8.97-1.1-1.69-2.2-3.38-3.31-5.07,3.23-2.1,6.51-4.14,9.84-6.1-1.04-1.76-2.07-3.52-3.11-5.28-5.31,3.13-10.51,6.45-15.57,9.95,3.46,5.02,6.93,10.03,10.4,15.05,8.01-5.53,16.36-10.57,25.02-15.08-4.48-8.61-8.97-17.21-13.46-25.81-13.57,7.08-26.49,15.3-38.6,24.58,4.66,6.09,9.31,12.17,13.98,18.25-7.35,5.63-14.38,11.69-21.06,18.14-3.91-4.04-7.82-8.08-11.72-12.12,4.42-4.28,8.99-8.39,13.7-12.33,1.06,1.26,2.12,2.52,3.18,3.79-3.15,2.64-6.25,5.36-9.27,8.16,1.38,1.49,2.77,2.99,4.15,4.49,4.54-4.19,9.22-8.21,14.04-12.04-3.56-4.49-7.12-8.97-10.69-13.46-8.52,6.77-16.63,14.07-24.28,21.86,6.92,6.8,13.85,13.6,20.78,20.39" style="fill:#ed1c24; fill-rule:evenodd;"/><path d="M46.81,167.86c5.21-12.09,11.42-23.69,18.55-34.71-6.43-4.16-12.87-8.33-19.3-12.49,5.66-8.74,11.84-17.14,18.53-25.15,4.32,3.6,8.63,7.2,12.95,10.81-3.72,4.45-7.27,9.03-10.65,13.73-1.63-1.18-3.27-2.36-4.91-3.54,2.25-3.12,4.58-6.21,6.98-9.24-1.6-1.26-3.2-2.53-4.8-3.8-3.83,4.83-7.48,9.8-10.94,14.89,5.04,3.43,10.07,6.86,15.12,10.29,5.48-8.05,11.46-15.76,17.9-23.09-7.28-6.41-14.57-12.82-21.85-19.22-10.11,11.49-19.19,23.82-27.14,36.84,6.54,4,13.07,8,19.62,11.98-4.83,7.9-9.2,16.08-13.1,24.51-5.1-2.36-10.21-4.73-15.3-7.08,2.58-5.59,5.36-11.07,8.33-16.44,1.44.8,2.89,1.59,4.33,2.39-1.99,3.6-3.9,7.25-5.7,10.95,1.83.9,3.66,1.8,5.49,2.69,2.72-5.54,5.64-10.98,8.76-16.29-4.94-2.9-9.88-5.8-14.82-8.7-5.51,9.39-10.44,19.11-14.77,29.14,8.91,3.84,17.82,7.69,26.73,11.53" style="fill:#ed1c24; fill-rule:evenodd;"/><path d="M29.09,249.2c.51-13.15,2.11-26.22,4.79-39.06-7.5-1.56-15-3.13-22.5-4.7,2.12-10.19,4.87-20.26,8.22-30.14,5.32,1.8,10.65,3.61,15.97,5.41-1.86,5.49-3.52,11.04-4.98,16.64-1.95-.51-3.9-1.02-5.86-1.53.98-3.73,2.04-7.45,3.18-11.13-1.95-.61-3.9-1.21-5.85-1.82-1.83,5.89-3.45,11.84-4.84,17.84,5.93,1.38,11.87,2.77,17.81,4.15,2.21-9.48,5.01-18.82,8.37-27.99-9.11-3.35-18.21-6.71-27.32-10.05-5.29,14.36-9.31,29.14-12.04,44.15,7.54,1.37,15.08,2.74,22.62,4.11-1.65,9.11-2.79,18.32-3.39,27.59-5.61-.36-11.22-.73-16.83-1.09.4-6.14,1.01-12.26,1.84-18.34,1.63.22,3.27.44,4.9.67-.55,4.08-1.02,8.17-1.37,12.27,2.03.18,4.06.36,6.1.53.54-6.15,1.3-12.27,2.3-18.35-5.65-.93-11.31-1.85-16.96-2.77-1.76,10.74-2.85,21.59-3.27,32.5,9.69.37,19.39.75,29.09,1.12" style="fill:#ed1c24; fill-rule:evenodd;"/><path d="M41.87,331.46c-4.27-12.45-7.48-25.22-9.61-38.16-7.56,1.24-15.12,2.48-22.68,3.73-1.69-10.27-2.76-20.65-3.2-31.08,5.62-.23,11.24-.48,16.85-.71.24,5.79.69,11.57,1.35,17.32-2,.23-4.01.46-6.02.68-.43-3.83-.78-7.68-1.04-11.53-2.04.14-4.08.28-6.11.41.41,6.15,1.05,12.29,1.92,18.38,6.03-.85,12.07-1.7,18.11-2.55-1.36-9.64-2.12-19.36-2.27-29.12-9.71.15-19.41.31-29.11.47.24,15.3,1.82,30.53,4.68,45.52,7.52-1.44,15.06-2.88,22.58-4.33,1.75,9.1,4.01,18.1,6.79,26.96-5.36,1.68-10.73,3.36-16.09,5.05-1.85-5.87-3.47-11.8-4.89-17.77,1.6-.38,3.21-.77,4.81-1.14.95,4,2,7.99,3.15,11.94,1.95-.57,3.92-1.13,5.88-1.7-1.71-5.93-3.21-11.92-4.47-17.94-5.61,1.17-11.22,2.35-16.82,3.53,2.23,10.65,5.12,21.16,8.66,31.5,9.18-3.15,18.36-6.29,27.54-9.44" style="fill:#ed1c24; fill-rule:evenodd;"/><path d="M83.45,403.59c-8.47-10.08-16.07-20.82-22.72-32.14-6.6,3.89-13.21,7.77-19.81,11.65-5.28-8.97-10.02-18.26-14.19-27.84,5.15-2.24,10.31-4.49,15.46-6.73,2.32,5.32,4.82,10.54,7.51,15.67-1.79.93-3.57,1.87-5.37,2.8-1.78-3.42-3.5-6.88-5.13-10.38-1.85.86-3.7,1.73-5.55,2.59,2.6,5.59,5.41,11.08,8.41,16.45,5.32-2.97,10.65-5.93,15.97-8.91-4.74-8.5-8.95-17.3-12.61-26.35-9,3.64-18,7.28-26.98,10.93,5.74,14.18,12.7,27.83,20.78,40.78,6.5-4.06,13-8.11,19.5-12.17,4.9,7.86,10.26,15.44,16.05,22.7-4.4,3.5-8.8,7.01-13.19,10.51-3.83-4.81-7.49-9.75-10.97-14.81,1.36-.94,2.71-1.87,4.08-2.8,2.33,3.39,4.74,6.73,7.24,10,1.62-1.23,3.24-2.46,4.86-3.71-3.74-4.92-7.28-9.96-10.64-15.13-4.81,3.11-9.62,6.24-14.42,9.35,5.92,9.13,12.41,17.9,19.43,26.26,7.43-6.24,14.86-12.49,22.29-18.73" style="fill:#ed1c24; fill-rule:evenodd;"/><path d="M148.22,455.88c-11.53-6.34-22.49-13.63-32.78-21.79-4.76,6-9.52,12.01-14.28,18.01-8.16-6.46-15.93-13.43-23.27-20.85,4-3.95,8-7.9,12-11.85,4.08,4.12,8.29,8.09,12.65,11.91-1.33,1.51-2.66,3.03-4,4.55-2.9-2.55-5.75-5.15-8.52-7.83-1.42,1.46-2.83,2.94-4.25,4.41,4.44,4.27,9.04,8.38,13.77,12.31,3.89-4.68,7.79-9.38,11.69-14.07-7.49-6.22-14.58-12.91-21.27-20.03-7.08,6.64-14.16,13.28-21.23,19.92,10.47,11.16,21.88,21.38,34.08,30.54,4.6-6.13,9.21-12.25,13.8-18.38,7.41,5.56,15.13,10.7,23.15,15.39-2.84,4.85-5.67,9.7-8.51,14.56-5.31-3.1-10.5-6.4-15.57-9.87.93-1.36,1.86-2.72,2.79-4.08,3.4,2.32,6.85,4.57,10.36,6.72,1.07-1.73,2.14-3.47,3.2-5.21-5.26-3.24-10.38-6.66-15.37-10.27-3.36,4.64-6.72,9.29-10.08,13.92,8.81,6.39,18.03,12.22,27.59,17.49,4.68-8.5,9.36-17,14.04-25.51" style="fill:#ed1c24; fill-rule:evenodd;"/><path d="M227.5,481.3c-13.05-1.76-25.89-4.6-38.43-8.51-2.27,7.32-4.55,14.64-6.82,21.95-9.94-3.09-19.7-6.78-29.22-11.07,2.3-5.12,4.61-10.25,6.91-15.38,5.29,2.38,10.65,4.56,16.1,6.55-.7,1.89-1.39,3.78-2.09,5.69-3.62-1.33-7.22-2.74-10.78-4.24-.79,1.88-1.58,3.77-2.37,5.65,5.68,2.39,11.46,4.56,17.29,6.52,1.95-5.78,3.89-11.56,5.83-17.33-9.23-3.1-18.26-6.78-27.06-11.02-4.21,8.75-8.42,17.49-12.62,26.23,13.79,6.63,28.11,12.05,42.8,16.21,2.08-7.38,4.17-14.75,6.25-22.12,8.91,2.52,17.97,4.53,27.14,6.01-.9,5.55-1.8,11.1-2.69,16.64-6.08-.98-12.11-2.18-18.08-3.59.37-1.61.75-3.21,1.13-4.81,4.01.94,8.04,1.79,12.09,2.54.37-2,.74-4.01,1.11-6.02-6.07-1.12-12.09-2.47-18.04-4.04-1.47,5.54-2.93,11.08-4.38,16.62,10.52,2.78,21.22,4.9,32.04,6.37,1.3-9.62,2.6-19.23,3.9-28.85" style="fill:#ed1c24; fill-rule:evenodd;"/><path d="M310.62,476.44c-12.8,3.06-25.81,5.04-38.91,5.92.52,7.64,1.03,15.29,1.54,22.93-10.38.7-20.82.78-31.24.21.3-5.61.6-11.23.9-16.84,5.79.31,11.58.41,17.37.31.03,2.01.07,4.03.1,6.05-3.86.06-7.72.05-11.58-.07-.06,2.04-.11,4.08-.17,6.12,6.16.18,12.33.13,18.48-.15-.27-6.09-.54-12.18-.81-18.27-9.73.43-19.47.26-29.21-.53-.78,9.68-1.55,19.36-2.32,29.02,15.25,1.22,30.57,1.11,45.77-.31-.72-7.63-1.42-15.26-2.15-22.89,9.22-.87,18.39-2.26,27.48-4.18,1.16,5.5,2.32,11,3.48,16.5-6.02,1.27-12.08,2.33-18.16,3.17-.23-1.63-.46-3.27-.68-4.9,4.08-.57,8.14-1.22,12.19-1.99-.38-2-.75-4.01-1.13-6.01-6.08,1.14-12.17,2.05-18.29,2.74.63,5.69,1.27,11.39,1.9,17.08,10.82-1.2,21.56-3.08,32.18-5.61-2.25-9.44-4.51-18.88-6.76-28.32" style="fill:#ed1c24; fill-rule:evenodd;"/><path d="M386.39,441.95c-10.84,7.47-22.26,14.01-34.16,19.55,3.24,6.94,6.47,13.89,9.71,20.83-9.43,4.4-19.14,8.23-29.07,11.46-1.74-5.34-3.48-10.69-5.23-16.03,5.52-1.8,10.95-3.79,16.32-5.98.75,1.87,1.51,3.74,2.27,5.61-3.57,1.45-7.18,2.83-10.82,4.11.68,1.93,1.36,3.85,2.04,5.78,5.81-2.06,11.55-4.33,17.18-6.8-2.44-5.58-4.9-11.17-7.34-16.75-8.92,3.91-18.07,7.25-27.43,10.04,2.76,9.31,5.53,18.61,8.3,27.9,14.67-4.36,28.92-9.98,42.58-16.79-3.42-6.85-6.83-13.72-10.25-20.57,8.29-4.13,16.35-8.74,24.13-13.8,3.07,4.71,6.13,9.42,9.2,14.13-5.16,3.36-10.43,6.52-15.8,9.5-.8-1.44-1.61-2.88-2.4-4.32,3.6-2,7.15-4.08,10.65-6.25-1.07-1.73-2.15-3.46-3.22-5.2-5.25,3.26-10.61,6.3-16.08,9.15,2.64,5.08,5.29,10.17,7.93,15.25,9.66-5.02,19-10.65,28-16.84-5.5-7.99-11.01-15.98-16.51-23.98" style="fill:#ed1c24; fill-rule:evenodd;"/><path d="M444.63,382.47c-7.42,10.88-15.72,21.09-24.82,30.55,5.53,5.31,11.05,10.62,16.57,15.93-7.22,7.5-14.89,14.58-22.98,21.16-3.55-4.35-7.1-8.71-10.66-13.07,4.5-3.66,8.85-7.49,13.06-11.45,1.38,1.47,2.76,2.94,4.15,4.41-2.81,2.64-5.68,5.23-8.61,7.73,1.33,1.55,2.66,3.1,3.99,4.65,4.68-4.02,9.21-8.2,13.58-12.54-4.29-4.33-8.59-8.65-12.88-12.98-6.91,6.86-14.24,13.28-21.97,19.25,5.93,7.68,11.86,15.36,17.79,23.03,12.11-9.36,23.38-19.74,33.66-31.01-5.66-5.16-11.32-10.34-16.98-15.5,6.25-6.84,12.1-14.04,17.53-21.57,4.56,3.29,9.12,6.58,13.68,9.87-3.6,4.99-7.38,9.84-11.31,14.55-1.27-1.06-2.54-2.11-3.8-3.17,2.63-3.16,5.2-6.38,7.69-9.67-1.63-1.23-3.25-2.46-4.88-3.69-3.73,4.93-7.62,9.7-11.7,14.32,4.3,3.79,8.6,7.58,12.9,11.36,7.2-8.16,13.89-16.78,20.05-25.79-8.02-5.47-16.03-10.94-24.05-16.41" style="fill:#ed1c24; fill-rule:evenodd;"/><path d="M477.51,305.99c-3,12.82-7.06,25.34-12.14,37.44,7.06,2.96,14.13,5.93,21.2,8.89-4.02,9.6-8.64,18.96-13.81,28.02-4.88-2.78-9.77-5.57-14.65-8.35,2.87-5.04,5.56-10.17,8.06-15.39,1.82.87,3.64,1.74,5.46,2.62-1.67,3.47-3.41,6.92-5.25,10.32,1.8.97,3.6,1.93,5.4,2.9,2.92-5.43,5.64-10.97,8.14-16.59-5.56-2.49-11.13-4.98-16.69-7.46-3.97,8.89-8.5,17.52-13.55,25.88,8.3,5.03,16.61,10.05,24.9,15.07,7.93-13.09,14.69-26.83,20.22-41.06-7.14-2.77-14.28-5.56-21.42-8.33,3.36-8.63,6.22-17.46,8.58-26.44,5.44,1.42,10.88,2.85,16.31,4.27-1.56,5.95-3.33,11.84-5.3,17.65-1.56-.53-3.13-1.05-4.68-1.59,1.32-3.9,2.55-7.83,3.69-11.79-1.96-.56-3.92-1.12-5.89-1.68-1.7,5.94-3.61,11.8-5.75,17.58,5.37,1.99,10.75,3.97,16.12,5.95,3.77-10.21,6.91-20.65,9.4-31.28-9.45-2.22-18.9-4.43-28.35-6.64" style="fill:#ed1c24; fill-rule:evenodd;"/><path d="M480.62,222.78c1.82,13.04,2.55,26.18,2.17,39.3,7.66.21,15.32.44,22.98.66-.3,10.4-1.22,20.8-2.78,31.12-5.55-.83-11.11-1.67-16.67-2.51.86-5.73,1.52-11.49,1.97-17.26,2.01.16,4.02.31,6.04.48-.31,3.84-.68,7.69-1.17,11.51,2.03.26,4.05.51,6.08.76.77-6.12,1.31-12.26,1.62-18.41-6.08-.32-12.18-.63-18.26-.94-.5,9.72-1.61,19.41-3.31,29.03,9.55,1.7,19.12,3.39,28.66,5.08,2.67-15.07,4.03-30.33,4.07-45.59-7.66-.01-15.33-.04-22.99-.05.02-9.26-.49-18.53-1.53-27.76,5.58-.63,11.17-1.26,16.76-1.89.69,6.11,1.16,12.25,1.42,18.38-1.64.07-3.3.14-4.94.21-.17-4.11-.44-8.22-.81-12.32-2.04.18-4.06.36-6.1.55.55,6.16.88,12.3.97,18.47,5.73-.08,11.46-.17,17.19-.26-.16-10.88-1.01-21.75-2.51-32.57-9.61,1.34-19.22,2.68-28.84,4.02" style="fill:#ed1c24; fill-rule:evenodd;"/><path d="M453.53,144.06c6.4,11.51,11.82,23.51,16.19,35.88,7.22-2.56,14.45-5.12,21.67-7.67,3.47,9.81,6.36,19.84,8.62,30.03-5.48,1.22-10.97,2.45-16.46,3.67-1.26-5.66-2.73-11.26-4.39-16.81,1.93-.58,3.86-1.16,5.8-1.73,1.1,3.69,2.13,7.42,3.06,11.16,1.98-.49,3.96-.99,5.95-1.48-1.49-5.99-3.2-11.91-5.13-17.75-5.79,1.9-11.58,3.8-17.37,5.7,3.04,9.25,5.49,18.68,7.37,28.27,9.53-1.86,19.05-3.73,28.57-5.59-2.94-15.02-7.18-29.74-12.64-43.99-7.15,2.75-14.31,5.49-21.46,8.24-3.32-8.65-7.13-17.11-11.44-25.34,4.98-2.6,9.97-5.21,14.95-7.81,2.85,5.45,5.5,11.01,7.95,16.63-1.51.66-3.02,1.32-4.53,1.97-1.65-3.77-3.38-7.51-5.2-11.2-1.83.91-3.66,1.8-5.49,2.71,2.74,5.54,5.26,11.16,7.57,16.88,5.31-2.14,10.63-4.29,15.94-6.44-4.08-10.09-8.78-19.93-14.08-29.48-8.48,4.72-16.97,9.43-25.45,14.14" style="fill:#ed1c24; fill-rule:evenodd;"/><path d="M399.88,80.4c10.12,8.43,19.5,17.66,28.04,27.63,5.81-4.99,11.63-9.98,17.45-14.97,6.77,7.9,13.08,16.22,18.87,24.9-4.67,3.11-9.35,6.23-14.03,9.35-3.22-4.82-6.61-9.52-10.15-14.1,1.59-1.24,3.19-2.47,4.79-3.71,2.35,3.05,4.66,6.15,6.87,9.31,1.67-1.17,3.34-2.35,5.01-3.52-3.55-5.04-7.28-9.95-11.18-14.71-4.71,3.85-9.43,7.72-14.15,11.58,6.17,7.53,11.86,15.45,17.07,23.71,8.21-5.17,16.42-10.34,24.63-15.51-8.16-12.95-17.41-25.16-27.65-36.47-5.68,5.14-11.37,10.28-17.04,15.42-6.22-6.87-12.82-13.39-19.8-19.51,3.7-4.22,7.42-8.45,11.13-12.67,4.62,4.06,9.09,8.28,13.41,12.65-1.17,1.16-2.34,2.32-3.52,3.47-2.89-2.92-5.85-5.79-8.88-8.58-1.39,1.51-2.76,3-4.14,4.51,4.55,4.18,8.92,8.51,13.14,13.01,4.18-3.91,8.37-7.83,12.55-11.75-7.44-7.94-15.38-15.43-23.76-22.42-6.21,7.45-12.42,14.91-18.64,22.36" style="fill:#ed1c24; fill-rule:evenodd;"/><path d="M447.84,213.28c-23.57-105.89-128.53-172.63-234.42-149.05-105.9,23.57-172.63,128.53-149.06,234.42,23.57,105.89,128.53,172.63,234.42,149.05,105.89-23.57,172.63-128.53,149.05-234.42h0ZM45.81,302.77C19.95,186.62,93.15,71.51,209.29,45.66c116.14-25.86,231.26,47.34,257.11,163.48,25.86,116.14-47.34,231.26-163.48,257.11-116.15,25.86-231.26-47.34-257.11-163.48" style="fill:#ed1c24; fill-rule:evenodd;"/></svg>
